<?xml version="1.0" standalone="no"?>
<!DOCTYPE svg PUBLIC "-//W3C//DTD SVG 20010904//EN"
 "http://www.w3.org/TR/2001/REC-SVG-20010904/DTD/svg10.dtd">
<svg version="1.0" xmlns="http://www.w3.org/2000/svg"
 width="792.000000pt" height="792.000000pt" viewBox="0 0 792.000000 792.000000"
 preserveAspectRatio="xMidYMid meet">
<metadata>
Created by potrace 1.14, written by Peter Selinger 2001-2017
</metadata>
<g transform="translate(0.000000,792.000000) scale(0.100000,-0.100000)"
fill="#000000" stroke="none">
<path d="M7038 7898 c-9 -11 -45 -51 -80 -88 -35 -37 -103 -111 -153 -165 -49
-55 -101 -110 -114 -124 -12 -14 -53 -59 -90 -100 -36 -40 -84 -93 -106 -117
-22 -23 -69 -75 -105 -114 -36 -40 -92 -101 -125 -137 l-60 -64 -73 43 c-40
24 -99 58 -130 76 -71 41 -356 180 -382 187 -3 1 -22 9 -44 18 -21 9 -44 17
-50 17 -7 0 -16 4 -21 9 -11 9 -298 104 -355 117 -49 11 -50 11 -52 14 -2 1
-12 4 -23 6 -11 1 -48 10 -82 18 -34 9 -77 18 -94 21 -18 3 -35 8 -38 10 -4 2
-27 6 -51 10 -25 3 -59 10 -77 15 -17 4 -34 6 -36 4 -2 -3 -24 0 -48 5 -24 5
-71 12 -104 16 -33 3 -82 8 -110 11 -27 3 -81 8 -120 11 -96 8 -644 8 -730 0
-204 -19 -199 -19 -299 -32 -26 -3 -96 -15 -155 -26 -58 -11 -119 -22 -136
-25 -25 -5 -87 -19 -165 -39 -8 -2 -15 -4 -15 -5 0 -1 -7 -3 -15 -5 -59 -12
-347 -103 -395 -125 -11 -5 -42 -18 -70 -29 -27 -10 -72 -29 -100 -42 -27 -12
-52 -23 -55 -24 -3 0 -52 -24 -110 -53 -166 -83 -243 -127 -390 -225 -100 -66
-259 -183 -270 -198 -3 -3 -32 -29 -65 -56 -138 -114 -347 -336 -460 -488 -33
-44 -63 -81 -68 -83 -4 -2 -7 -8 -7 -14 0 -10 -49 -79 -65 -90 -5 -4 -6 -8 -1
-8 5 0 2 -8 -6 -17 -29 -33 -141 -227 -197 -341 -4 -9 -15 -30 -24 -47 -43
-86 -163 -384 -182 -455 -2 -8 -15 -53 -28 -100 -14 -47 -28 -98 -32 -115 -5
-16 -10 -34 -11 -40 -4 -13 -43 -202 -49 -235 -2 -14 -6 -36 -9 -50 -5 -26
-16 -107 -21 -150 -1 -14 -5 -47 -9 -75 -3 -27 -9 -81 -13 -120 -9 -78 -8
-664 0 -765 7 -81 17 -169 22 -195 2 -11 7 -42 10 -68 3 -26 10 -71 16 -100 6
-29 12 -65 15 -82 2 -16 7 -41 10 -55 3 -14 9 -43 14 -65 5 -22 13 -51 18 -65
5 -14 10 -28 11 -33 6 -46 61 -229 74 -244 5 -7 7 -13 3 -13 -5 0 48 -152 61
-174 4 -6 8 -16 9 -22 3 -19 74 -172 129 -279 47 -91 64 -123 107 -196 7 -12
49 -76 93 -142 44 -66 85 -126 90 -135 6 -9 15 -21 20 -27 6 -7 21 -27 35 -45
14 -18 54 -67 88 -109 35 -42 66 -81 69 -88 2 -6 -11 -27 -29 -46 -18 -19 -71
-76 -118 -127 -47 -51 -98 -107 -115 -125 -16 -17 -79 -85 -140 -151 -60 -65
-125 -134 -143 -153 -18 -19 -62 -67 -98 -107 -35 -40 -88 -97 -117 -127 -29
-30 -64 -69 -79 -85 l-27 -31 67 -58 c37 -32 72 -62 78 -68 6 -5 35 -30 64
-54 29 -25 58 -50 64 -56 6 -5 54 -46 106 -90 52 -44 101 -86 109 -93 12 -11
19 -8 44 20 82 91 177 194 217 237 25 26 86 92 135 146 50 54 110 119 133 144
24 25 76 82 115 125 40 44 81 89 93 100 12 12 46 49 77 82 l55 62 34 -27 c64
-51 273 -191 284 -191 4 0 15 -6 23 -14 52 -45 378 -205 571 -279 124 -48 279
-100 330 -113 8 -2 69 -17 135 -34 114 -29 359 -74 455 -84 25 -3 65 -7 90
-10 128 -16 209 -19 470 -19 256 -1 383 4 490 18 19 3 58 7 85 10 64 7 91 10
140 19 22 4 54 9 70 11 17 2 41 7 55 10 14 3 39 8 55 11 17 3 59 12 95 20 36
9 72 17 80 19 90 20 379 111 447 141 17 8 34 14 38 14 7 0 61 24 240 105 44
20 81 35 81 33 1 -2 10 4 20 12 11 9 32 22 49 30 71 35 233 132 339 202 26 18
217 160 239 178 200 166 386 352 518 520 24 30 48 60 54 66 10 11 121 170 140
201 6 10 15 23 22 30 6 7 15 22 18 33 3 11 11 20 16 20 5 0 9 5 9 10 0 6 10
27 23 48 32 51 139 247 142 262 1 3 16 37 34 75 27 59 70 160 106 250 4 11 10
28 12 38 1 10 10 31 18 47 9 17 15 32 15 35 0 3 0 6 1 8 0 1 2 9 4 17 2 8 14
51 28 95 22 71 49 172 53 200 1 6 3 13 4 18 4 13 19 85 26 127 3 14 9 48 14
75 9 49 11 65 26 170 23 171 29 290 29 580 -1 160 -4 324 -8 365 -4 41 -9 93
-11 115 -2 22 -6 56 -9 75 -3 19 -9 58 -12 85 -3 28 -10 70 -15 95 -5 25 -12
59 -14 75 -3 17 -7 41 -10 55 -3 14 -8 34 -10 45 -4 17 -20 88 -31 135 -30
124 -116 381 -170 507 -39 90 -181 372 -207 410 -15 23 -28 44 -28 48 0 3 -5
11 -10 18 -6 7 -29 41 -51 77 -36 56 -173 246 -189 260 -3 3 -30 34 -60 70
-30 36 -88 100 -130 143 -41 43 -76 82 -78 87 -2 6 2 16 10 24 7 7 49 53 93
101 44 48 91 100 105 115 14 15 61 67 105 115 44 48 91 100 105 115 14 15 63
70 110 121 47 51 108 117 135 148 28 30 73 80 102 110 l52 56 -32 30 c-18 17
-70 64 -117 105 -47 41 -90 80 -96 85 -6 6 -35 30 -64 55 -30 25 -72 62 -94
82 -23 21 -48 43 -56 51 -27 25 -35 26 -52 5z m-2813 -1412 c22 -2 56 -6 75
-9 19 -3 58 -9 85 -13 28 -4 57 -9 65 -10 8 -2 29 -5 45 -7 17 -3 37 -8 45
-11 8 -3 26 -8 40 -10 55 -11 75 -17 192 -56 204 -69 469 -206 633 -329 164
-123 325 -279 450 -436 33 -42 37 -48 109 -156 26 -41 56 -85 65 -99 27 -38
156 -306 187 -385 30 -78 75 -207 74 -215 0 -3 7 -29 15 -58 19 -64 57 -237
60 -272 1 -14 5 -38 8 -55 7 -33 14 -93 23 -195 9 -91 8 -472 0 -550 -4 -36
-9 -83 -11 -105 -3 -22 -7 -55 -9 -73 -3 -18 -8 -52 -11 -75 -11 -76 -57 -281
-66 -299 -5 -10 -7 -18 -5 -18 6 0 -68 -220 -89 -267 -8 -17 -15 -34 -15 -37
0 -11 -119 -250 -149 -301 -17 -27 -38 -63 -47 -80 -9 -16 -20 -32 -23 -35 -3
-3 -19 -25 -36 -50 -16 -25 -35 -52 -42 -60 -7 -8 -40 -49 -73 -90 -75 -92
-235 -256 -272 -278 -16 -9 -28 -19 -28 -23 0 -8 -204 -160 -230 -172 -8 -4
-28 -16 -45 -26 -71 -46 -227 -126 -325 -166 -65 -28 -230 -84 -263 -90 -9 -2
-21 -6 -25 -9 -5 -3 -24 -8 -43 -11 -19 -3 -51 -10 -72 -16 -21 -6 -53 -12
-70 -14 -18 -1 -43 -5 -57 -9 -164 -38 -599 -41 -820 -6 -36 6 -78 13 -95 15
-16 3 -41 7 -55 10 -14 4 -36 8 -49 11 -14 3 -28 7 -31 9 -4 2 -20 6 -36 9
-65 12 -304 96 -329 116 -5 5 -12 8 -15 7 -10 -3 -170 77 -170 85 0 4 -7 8
-15 8 -9 0 -28 8 -43 18 -15 11 -61 40 -102 67 -64 41 -174 119 -190 135 -3 3
-33 29 -68 59 -58 49 -162 153 -212 211 -12 14 -34 39 -48 55 -15 17 -53 66
-84 110 -32 44 -62 85 -68 92 -5 7 -10 15 -10 19 0 4 -11 22 -26 41 -14 18
-22 33 -19 33 4 0 -3 12 -14 26 -12 15 -21 32 -21 40 0 7 -3 14 -8 16 -7 3
-79 145 -107 213 -7 17 -18 41 -24 55 -35 78 -104 297 -127 400 -2 11 -6 30
-9 43 -15 63 -36 189 -41 235 -2 24 -6 56 -9 70 -9 52 -19 248 -19 387 1 192
13 362 35 490 6 33 12 69 14 80 2 11 6 31 9 45 4 14 9 39 12 55 9 44 12 60 14
60 1 0 3 7 5 15 9 40 45 162 65 215 12 33 27 76 33 95 6 19 14 37 17 40 3 3 6
12 8 20 13 62 186 377 269 490 18 25 37 50 41 55 108 149 282 325 448 455 62
49 94 70 103 70 6 0 11 4 11 8 0 5 19 19 43 32 23 13 61 36 85 52 23 16 42 27
42 24 0 -3 21 7 48 22 124 71 398 177 502 195 14 3 43 10 65 15 22 6 56 13 75
16 19 3 51 8 70 11 68 11 106 15 185 21 44 3 81 7 83 9 4 3 370 -4 417 -9z"/>
</g>
</svg>
