<?xml version="1.0" encoding="UTF-8"?>
<svg id="Layer_1" data-name="Layer 1" xmlns="http://www.w3.org/2000/svg" viewBox="0 0 441.03 99.01">
  <defs>
    <style>
      .cls-1 {
        fill: #231f20;
      }
    </style>
  </defs>
  <polygon class="cls-1" points="138.75 34.19 123.9 34.19 123.9 4.79 117.68 4.79 117.68 39.72 138.75 39.72 138.75 34.19"/>
  <rect class="cls-1" x="147.83" y="4.79" width="6.22" height="34.94"/>
  <polygon class="cls-1" points="170.73 4.79 164.51 4.79 164.51 39.72 185.58 39.72 185.58 34.19 170.73 34.19 170.73 4.79"/>
  <polygon class="cls-1" points="200.87 4.79 194.66 4.79 194.66 39.72 215.73 39.72 215.73 34.19 200.87 34.19 200.87 4.79"/>
  <polygon class="cls-1" points="248.84 34.19 231.02 34.19 231.02 24.33 247.06 24.33 247.06 19.09 231.02 19.09 231.02 10.21 247.95 10.21 247.95 4.79 224.81 4.79 224.81 39.72 248.84 39.72 248.84 34.19"/>
  <path class="cls-1" d="M281.9,34.37c.69-1.4,1.04-3.03,1.04-4.91,0-1.71-.32-3.14-.96-4.29-.64-1.15-1.46-2.1-2.47-2.86-1-.76-2.11-1.36-3.31-1.83s-2.36-.87-3.48-1.23c-.99-.3-1.89-.59-2.71-.89-.82-.3-1.52-.64-2.1-1.04s-1.03-.87-1.36-1.43c-.33-.56-.49-1.23-.49-2.02,0-.85,.19-1.59,.57-2.2,.38-.61,.86-1.1,1.46-1.48s1.25-.66,1.97-.84c.72-.18,1.45-.27,2.17-.27,1.22,0,2.43,.29,3.63,.86s2.13,1.29,2.79,2.15l4.05-4.44c-1.35-1.25-2.94-2.19-4.76-2.81-1.83-.63-3.63-.94-5.4-.94-1.58,0-3.13,.21-4.66,.62-1.53,.41-2.9,1.04-4.1,1.88-1.2,.84-2.17,1.9-2.91,3.18s-1.11,2.81-1.11,4.59c0,1.65,.26,3.02,.79,4.12,.53,1.1,1.21,2.03,2.05,2.79s1.78,1.37,2.84,1.83c1.05,.46,2.11,.86,3.16,1.18,1.09,.36,2.12,.71,3.11,1.04,.99,.33,1.84,.72,2.57,1.16,.72,.44,1.3,.97,1.73,1.58,.43,.61,.64,1.37,.64,2.29s-.19,1.75-.57,2.39c-.38,.64-.87,1.18-1.48,1.6s-1.29,.73-2.05,.91c-.76,.18-1.5,.27-2.22,.27-1.38,0-2.79-.35-4.22-1.04s-2.57-1.63-3.43-2.81l-4.44,4.14c1.38,1.65,3.16,2.89,5.33,3.73,2.17,.84,4.39,1.26,6.66,1.26,1.71,0,3.34-.23,4.88-.69,1.55-.46,2.9-1.15,4.05-2.07,1.15-.92,2.07-2.08,2.76-3.48Z"/>
  <path class="cls-1" d="M345.46,21c1.43-1.6,2.15-3.66,2.15-6.19,0-1.84-.36-3.4-1.08-4.69-.72-1.28-1.69-2.32-2.89-3.11-1.2-.79-2.57-1.36-4.12-1.7-1.55-.35-3.14-.52-4.79-.52h-12.14V39.72h6.22v-14.8h4.54l8.09,14.8h7.5l-9.33-15.49c2.47-.56,4.42-1.64,5.85-3.23Zm-8.91-1.36c-.89,.13-1.78,.2-2.66,.2h-5.08V10.02h5.62c.79,0,1.6,.07,2.44,.2,.84,.13,1.59,.38,2.24,.74,.66,.36,1.2,.85,1.63,1.46,.43,.61,.64,1.39,.64,2.34,0,1.05-.23,1.92-.69,2.59-.46,.67-1.05,1.19-1.75,1.55-.71,.36-1.5,.61-2.39,.74Z"/>
  <polygon class="cls-1" points="431.26 4.79 422.28 29.61 422.13 29.61 413.05 4.79 403.33 4.79 403.33 39.72 409.25 39.72 409.25 11.65 409.35 11.65 419.81 39.72 424.15 39.72 434.76 11.65 434.86 11.65 434.86 39.72 441.03 39.72 441.03 4.79 431.26 4.79"/>
  <path class="cls-1" d="M145.07,65.36c-1.68-1.58-3.67-2.8-5.97-3.65s-4.82-1.28-7.55-1.28-5.19,.43-7.48,1.28c-2.29,.86-4.26,2.07-5.92,3.65-1.66,1.58-2.96,3.5-3.9,5.75-.94,2.25-1.41,4.78-1.41,7.57s.47,5.22,1.41,7.48c.94,2.25,2.24,4.19,3.9,5.82,1.66,1.63,3.63,2.9,5.92,3.8,2.28,.9,4.78,1.36,7.48,1.36s5.25-.45,7.55-1.36,4.29-2.17,5.97-3.8c1.68-1.63,2.99-3.57,3.92-5.82,.94-2.25,1.41-4.74,1.41-7.48s-.47-5.32-1.41-7.57c-.94-2.25-2.25-4.17-3.92-5.75Zm-2.29,18.48c-.58,1.56-1.4,2.92-2.47,4.07-1.07,1.15-2.34,2.05-3.82,2.69-1.48,.64-3.11,.96-4.88,.96s-3.4-.32-4.86-.96-2.73-1.54-3.8-2.69c-1.07-1.15-1.89-2.51-2.47-4.07-.58-1.56-.86-3.28-.86-5.16s.29-3.49,.86-5.03c.57-1.54,1.39-2.89,2.44-4.05s2.31-2.06,3.77-2.71c1.46-.66,3.1-.99,4.91-.99s3.46,.33,4.94,.99c1.48,.66,2.75,1.56,3.8,2.71,1.05,1.15,1.87,2.5,2.44,4.05,.57,1.55,.86,3.22,.86,5.03s-.29,3.59-.86,5.16Z"/>
  <path class="cls-1" d="M177.54,63.63c-1.15-.82-2.53-1.41-4.14-1.78-1.61-.36-3.42-.54-5.43-.54h-10.33v34.94h6.22v-14.46h3.71c1.84,0,3.59-.18,5.23-.54,1.64-.36,3.08-.95,4.32-1.75,1.23-.81,2.21-1.87,2.94-3.18,.72-1.32,1.09-2.94,1.09-4.88,0-1.81-.31-3.36-.94-4.64-.63-1.28-1.51-2.34-2.67-3.16Zm-3.3,10.36c-.43,.66-1,1.18-1.73,1.56-.72,.38-1.55,.64-2.47,.79-.92,.15-1.89,.22-2.91,.22h-3.27v-10.02h3.47c.95,0,1.88,.06,2.79,.17,.9,.12,1.71,.35,2.42,.71,.71,.36,1.27,.86,1.7,1.5s.64,1.47,.64,2.49-.21,1.91-.64,2.56Z"/>
  <polygon class="cls-1" points="186.66 66.74 195.53 66.74 195.53 96.25 201.75 96.25 201.75 66.74 210.62 66.74 210.62 61.31 186.66 61.31 186.66 66.74"/>
  <polygon class="cls-1" points="289.64 10.21 298.52 10.21 298.52 39.72 304.73 39.72 304.73 10.21 313.61 10.21 313.61 4.79 289.64 4.79 289.64 10.21"/>
  <rect class="cls-1" x="219" y="61.31" width="6.22" height="34.94"/>
  <polygon class="cls-1" points="267.09 61.31 258.7 61.31 244.1 76.41 243.95 76.41 243.95 61.31 237.73 61.31 237.73 96.25 243.95 96.25 243.95 78.73 244.1 78.73 259.44 96.25 268.18 96.25 250.76 77.45 267.09 61.31"/>
  <polygon class="cls-1" points="307.01 61.31 298.62 61.31 284.02 76.41 283.87 76.41 283.87 61.31 277.65 61.31 277.65 96.25 283.87 96.25 283.87 78.73 284.02 78.73 299.36 96.25 308.09 96.25 290.68 77.45 307.01 61.31"/>
  <path class="cls-1" d="M389.22,8.96l4.08-4.47-2.42-2.12-4.2,4.6c-1.09-.7-2.26-1.31-3.55-1.78-2.3-.86-4.82-1.28-7.55-1.28s-5.19,.43-7.48,1.28c-2.29,.86-4.26,2.07-5.92,3.65-1.66,1.58-2.96,3.5-3.9,5.75-.94,2.25-1.41,4.78-1.41,7.57s.47,5.22,1.41,7.48c.78,1.87,1.83,3.5,3.11,4.93l-4.31,4.66,2.47,2.12,4.21-4.56c1.3,1,2.74,1.82,4.35,2.46,2.28,.9,4.78,1.36,7.48,1.36s5.25-.45,7.55-1.36,4.29-2.17,5.97-3.8c1.68-1.63,2.99-3.57,3.92-5.82,.94-2.25,1.41-4.74,1.41-7.48s-.47-5.32-1.41-7.57c-.91-2.2-2.19-4.07-3.8-5.62Zm-2.41,18.35c-.58,1.56-1.4,2.92-2.47,4.07-1.07,1.15-2.34,2.05-3.82,2.69-1.48,.64-3.11,.96-4.88,.96s-3.4-.32-4.86-.96-2.73-1.54-3.8-2.69c-1.07-1.15-1.89-2.51-2.47-4.07-.58-1.56-.86-3.28-.86-5.16s.29-3.49,.86-5.03c.57-1.54,1.39-2.89,2.44-4.05s2.31-2.06,3.77-2.71c1.46-.66,3.1-.99,4.91-.99s3.46,.33,4.94,.99c1.48,.66,2.75,1.56,3.8,2.71,1.05,1.15,1.87,2.5,2.44,4.05,.57,1.55,.86,3.22,.86,5.03s-.29,3.59-.86,5.16Z"/>
  <path class="cls-1" d="M82.15,16.74l10.35-11.35-6.15-5.39-10.67,11.67c-2.77-1.78-5.75-3.32-9.01-4.53-5.85-2.17-12.24-3.26-19.18-3.26s-13.18,1.09-18.99,3.26c-5.81,2.17-10.82,5.26-15.04,9.27-4.22,4.01-7.52,8.88-9.9,14.6-2.38,5.72-3.57,12.14-3.57,19.24s1.19,13.26,3.57,18.99c1.97,4.74,4.65,8.88,7.89,12.53L.5,93.62l6.27,5.39,10.7-11.58c3.3,2.53,6.96,4.63,11.05,6.25,5.8,2.3,12.13,3.45,18.99,3.45s13.33-1.15,19.18-3.45c5.85-2.3,10.9-5.52,15.17-9.65,4.26-4.14,7.58-9.07,9.97-14.79,2.38-5.72,3.57-12.05,3.57-18.99s-1.19-13.51-3.57-19.24c-2.32-5.58-5.56-10.33-9.66-14.28Zm-6.13,46.62c-1.46,3.97-3.55,7.42-6.27,10.34-2.71,2.93-5.95,5.2-9.72,6.83-3.76,1.63-7.89,2.45-12.41,2.45s-8.62-.82-12.34-2.45c-3.72-1.63-6.94-3.9-9.65-6.83-2.71-2.92-4.8-6.37-6.26-10.34-1.46-3.97-2.19-8.33-2.19-13.1s.73-8.86,2.19-12.79c1.46-3.92,3.53-7.35,6.2-10.28,2.67-2.92,5.87-5.22,9.59-6.89,3.72-1.67,7.87-2.51,12.47-2.51s8.78,.83,12.54,2.51c3.76,1.67,6.98,3.97,9.65,6.89,2.68,2.92,4.74,6.35,6.21,10.28,1.46,3.93,2.19,8.19,2.19,12.79s-.73,9.13-2.19,13.1Z"/>
</svg>