<?xml version="1.0" encoding="UTF-8"?>
<svg id="Layer_1" data-name="Layer 1" xmlns="http://www.w3.org/2000/svg" xmlns:xlink="http://www.w3.org/1999/xlink" viewBox="0 0 1522.57 2153.34">
  <defs>
    <style>
      .cls-1 {
        fill: none;
      }

      .cls-2 {
        clip-path: url(#clippath);
      }

      .cls-3 {
        fill: #809de7;
      }
    </style>
    <clipPath id="clippath">
      <rect class="cls-1" x="0" y="0" width="1522.57" height="2153.34"/>
    </clipPath>
  </defs>
  <g class="cls-2">
    <path class="cls-3" d="M3869.98,2918.28c11.15-15.8,20.92-32.91,28.87-51.75,14.39-34.09,22.48-71.65,24.28-112.74,1.78-40.6-3.01-78.37-14.37-113.31-11.36-34.97-28.37-65.47-51.03-91.49-22.66-26.06-50.64-46.86-83.92-62.46-33.29-15.59-70.97-24.3-113.04-26.14-41.08-1.8-78.88,3.59-113.39,16.22-28.46,10.4-53.52,25.08-75.89,43.19l-64.19-64.19-66.37-66.37c11.15-15.8,20.92-32.91,28.87-51.75,14.39-34.09,22.48-71.65,24.28-112.74,1.78-40.6-3.01-78.37-14.37-113.31-11.36-34.97-28.37-65.47-51.03-91.49-22.66-26.05-50.64-46.86-83.92-62.46-33.29-15.59-70.97-24.3-113.04-26.14-41.08-1.8-78.88,3.59-113.39,16.22-28.46,10.4-53.52,25.08-75.89,43.19l-64.19-64.19-66.37-66.37c11.15-15.8,20.92-32.91,28.87-51.75,14.39-34.09,22.48-71.65,24.28-112.74,1.78-40.6-3.01-78.37-14.37-113.31-11.36-34.97-28.37-65.47-51.03-91.49-22.66-26.06-50.64-46.86-83.92-62.46-33.29-15.59-70.97-24.3-113.04-26.14-41.08-1.8-78.88,3.59-113.39,16.22-28.46,10.4-53.52,25.08-75.89,43.19l-64.19-64.19-66.37-66.37c11.15-15.8,20.92-32.91,28.87-51.75,14.39-34.09,22.48-71.65,24.28-112.74,1.78-40.6-3.01-78.37-14.37-113.31-11.36-34.97-28.37-65.47-51.03-91.49-22.66-26.05-50.64-46.86-83.92-62.46-33.29-15.59-70.97-24.3-113.04-26.14-41.08-1.8-78.88,3.59-113.39,16.22-28.46,10.4-53.52,25.08-75.89,43.19l-64.19-64.19-66.37-66.37c11.15-15.8,20.92-32.91,28.87-51.75,14.39-34.09,22.48-71.65,24.28-112.74,1.78-40.6-3.01-78.37-14.37-113.31-11.36-34.97-28.37-65.47-51.03-91.49-22.66-26.06-50.64-46.86-83.92-62.46-33.29-15.59-70.97-24.3-113.04-26.14-41.08-1.8-78.88,3.59-113.39,16.22-28.46,10.4-53.52,25.08-75.89,43.19l-64.19-64.19-66.37-66.37c11.15-15.8,20.92-32.91,28.87-51.75,14.39-34.09,22.48-71.65,24.28-112.74,1.78-40.6-3.01-78.37-14.37-113.31-11.36-34.97-28.37-65.47-51.03-91.49-22.66-26.05-50.64-46.86-83.92-62.46-33.29-15.59-70.97-24.3-113.04-26.14-41.08-1.8-78.88,3.59-113.39,16.22-28.46,10.4-53.52,25.08-75.89,43.19l-64.19-64.19-66.37-66.37c11.15-15.8,20.92-32.91,28.87-51.75,14.39-34.09,22.48-71.65,24.28-112.74,1.78-40.6-3.01-78.37-14.37-113.31-11.36-34.97-28.37-65.47-51.03-91.49-22.66-26.06-50.64-46.86-83.92-62.46-33.29-15.59-70.97-24.3-113.04-26.14-41.08-1.8-78.88,3.59-113.39,16.22-28.46,10.4-53.52,25.08-75.89,43.19l-64.19-64.19-66.37-66.37c11.15-15.8,20.92-32.91,28.87-51.75,14.39-34.09,22.48-71.65,24.28-112.74,1.78-40.6-3.01-78.37-14.37-113.31-11.36-34.97-28.37-65.47-51.03-91.49-22.66-26.05-50.64-46.86-83.92-62.46-33.29-15.59-70.97-24.3-113.04-26.14-41.08-1.8-78.88,3.59-113.39,16.22-28.46,10.4-53.52,25.08-75.89,43.19l-64.19-64.19-66.37-66.37c11.15-15.8,20.92-32.91,28.87-51.75,14.39-34.09,22.48-71.65,24.28-112.74,1.78-40.6-3.01-78.37-14.37-113.31-11.36-34.97-28.37-65.47-51.03-91.49-22.66-26.06-50.64-46.86-83.92-62.46-33.29-15.59-70.97-24.3-113.04-26.14-41.08-1.8-78.88,3.59-113.39,16.22-28.46,10.4-53.52,25.08-75.89,43.19l-64.19-64.19-66.37-66.37c11.15-15.8,20.92-32.91,28.87-51.75,14.39-34.09,22.48-71.65,24.28-112.74,1.78-40.6-3.01-78.37-14.37-113.31-11.36-34.97-28.37-65.47-51.03-91.49-22.66-26.05-50.64-46.86-83.92-62.46-33.29-15.59-70.97-24.3-113.04-26.14-41.08-1.8-78.88,3.59-113.39,16.22-28.46,10.4-53.52,25.08-75.89,43.19l-64.19-64.19-35.16,35.16,63.68,63.68c-15.74,18.82-29.1,39.88-39.69,63.56-15.12,33.78-23.57,70.97-25.35,111.57-1.8,41.08,3.35,79.23,15.44,114.48,12.09,35.25,29.84,66.02,53.23,92.35,23.39,26.3,51.73,47.28,85.02,62.87,33.28,15.56,70.46,24.28,111.54,26.08,42.07,1.84,80.36-3.56,114.89-16.15,33.42-12.22,62.22-30.02,86.6-53.08l63.69,63.69,63.68,63.68c-15.74,18.82-29.1,39.88-39.69,63.56-15.12,33.78-23.57,70.97-25.35,111.57-1.8,41.08,3.35,79.23,15.44,114.48,12.09,35.25,29.84,66.02,53.23,92.35,23.39,26.3,51.73,47.28,85.02,62.87,33.28,15.56,70.46,24.28,111.54,26.08,42.07,1.84,80.36-3.56,114.89-16.15,33.42-12.22,62.22-30.02,86.6-53.08l63.69,63.69,63.68,63.68c-15.74,18.82-29.1,39.88-39.69,63.56-15.12,33.78-23.57,70.97-25.35,111.57-1.8,41.08,3.35,79.23,15.44,114.48,12.09,35.25,29.84,66.02,53.23,92.35,23.39,26.3,51.73,47.28,85.02,62.87,33.28,15.56,70.46,24.28,111.54,26.08,42.07,1.84,80.36-3.56,114.89-16.15,33.42-12.22,62.22-30.02,86.6-53.08l63.69,63.69,63.68,63.68c-15.74,18.82-29.1,39.88-39.69,63.56-15.12,33.78-23.57,70.97-25.35,111.57-1.8,41.08,3.35,79.23,15.44,114.48,12.09,35.25,29.84,66.02,53.23,92.35,23.39,26.3,51.73,47.28,85.02,62.87,33.28,15.56,70.46,24.28,111.54,26.08,42.07,1.84,80.36-3.56,114.89-16.15,33.42-12.22,62.22-30.02,86.6-53.08l63.69,63.69,63.68,63.68c-15.74,18.82-29.1,39.88-39.69,63.56-15.12,33.78-23.57,70.97-25.35,111.57-1.8,41.08,3.35,79.23,15.44,114.48,12.09,35.25,29.84,66.02,53.23,92.35,23.39,26.3,51.73,47.28,85.02,62.87,33.28,15.56,70.46,24.28,111.54,26.08,42.07,1.84,80.36-3.56,114.89-16.15,33.42-12.22,62.22-30.02,86.6-53.08l63.69,63.69,63.68,63.68c-15.74,18.82-29.1,39.88-39.69,63.56-15.12,33.78-23.57,70.97-25.35,111.57-1.8,41.08,3.35,79.23,15.44,114.48,12.09,35.25,29.84,66.02,53.23,92.35,23.39,26.3,51.73,47.28,85.02,62.87,33.28,15.56,70.46,24.28,111.54,26.08,42.07,1.84,80.36-3.56,114.89-16.15,33.42-12.22,62.22-30.02,86.6-53.08l63.69,63.69,63.68,63.68c-15.74,18.82-29.1,39.88-39.69,63.56-15.12,33.78-23.57,70.97-25.35,111.57-1.8,41.08,3.35,79.23,15.44,114.48,12.09,35.25,29.84,66.02,53.23,92.35,23.39,26.3,51.73,47.28,85.02,62.87,33.28,15.56,70.46,24.28,111.54,26.08,42.07,1.84,80.36-3.56,114.89-16.15,33.42-12.22,62.22-30.02,86.6-53.08l63.69,63.69,63.68,63.68c-15.74,18.82-29.1,39.88-39.69,63.56-15.12,33.78-23.57,70.97-25.35,111.57-1.8,41.08,3.35,79.23,15.44,114.48,12.09,35.25,29.84,66.02,53.23,92.35,23.39,26.3,51.73,47.28,85.02,62.87,33.28,15.56,70.46,24.28,111.54,26.08,42.07,1.84,80.36-3.56,114.89-16.15,33.42-12.22,62.22-30.02,86.6-53.08l63.69,63.69,63.68,63.68c-15.74,18.82-29.1,39.88-39.69,63.56-15.12,33.78-23.57,70.97-25.35,111.57-1.8,41.08,3.35,79.23,15.44,114.48,12.09,35.25,29.84,66.02,53.23,92.35,23.39,26.3,51.73,47.28,85.02,62.87,33.28,15.56,70.46,24.28,111.54,26.08,42.07,1.84,80.36-3.56,114.89-16.15,33.42-12.22,62.22-30.02,86.6-53.08l63.69,63.69,63.68,63.68c-15.74,18.82-29.1,39.88-39.69,63.56-15.12,33.78-23.57,70.97-25.35,111.57-1.8,41.08,3.35,79.23,15.44,114.48,12.09,35.25,29.84,66.02,53.23,92.35,23.39,26.3,51.73,47.28,85.02,62.87,33.28,15.56,70.46,24.28,111.54,26.08,42.07,1.84,80.36-3.56,114.89-16.15,33.42-12.22,62.22-30.02,86.6-53.08l63.69,63.69,35.16-35.16-66.37-66.37ZM-982.17-1881.55c-18.02,15.1-38.86,26.44-62.48,34.1-23.65,7.62-49.08,10.86-76.3,9.67-28.21-1.24-53.88-6.72-77.01-16.39-23.14-9.7-43.02-22.98-59.62-39.81-16.64-16.83-29.27-36.6-37.94-59.32-8.68-22.69-12.44-47.4-11.26-74.13,1.17-26.7,7.07-50.87,17.69-72.47,10.62-21.6,24.93-40.07,42.97-55.41,18.01-15.31,38.98-26.8,62.88-34.41,23.88-7.64,49.93-10.83,78.15-9.59,27.22,1.19,52.27,6.62,75.16,16.31,22.87,9.66,42.63,22.81,59.26,39.4,16.63,16.59,29.41,36.13,38.34,58.58,8.94,22.46,12.8,47.29,11.61,74.51-1.19,27.22-7.22,51.77-18.1,73.6-10.87,21.83-25.31,40.3-43.33,55.37ZM-453.13-1352.51c-18.02,15.1-38.86,26.44-62.48,34.1-23.65,7.62-49.08,10.86-76.3,9.67-28.22-1.24-53.88-6.72-77.01-16.39-23.14-9.7-43.02-22.98-59.62-39.81-16.64-16.83-29.27-36.6-37.94-59.32-8.68-22.69-12.43-47.4-11.26-74.13,1.17-26.7,7.07-50.87,17.69-72.47,10.62-21.6,24.93-40.07,42.97-55.41,18.01-15.31,38.98-26.8,62.88-34.41,23.88-7.64,49.93-10.83,78.15-9.59,27.22,1.19,52.27,6.62,75.16,16.31,22.87,9.66,42.63,22.81,59.26,39.4,16.63,16.59,29.41,36.13,38.34,58.58,8.94,22.46,12.8,47.29,11.61,74.51-1.19,27.22-7.22,51.77-18.1,73.6-10.87,21.83-25.31,40.3-43.33,55.36ZM75.92-823.46c-18.02,15.1-38.86,26.44-62.48,34.1-23.65,7.62-49.08,10.86-76.3,9.67-28.21-1.24-53.88-6.72-77.01-16.39-23.14-9.7-43.02-22.98-59.62-39.81-16.64-16.83-29.27-36.6-37.94-59.32-8.68-22.69-12.44-47.4-11.26-74.13,1.17-26.7,7.07-50.87,17.69-72.47,10.62-21.6,24.93-40.07,42.97-55.41,18.01-15.31,38.98-26.8,62.88-34.41,23.88-7.64,49.93-10.83,78.15-9.59,27.22,1.19,52.27,6.62,75.16,16.31,22.87,9.66,42.63,22.81,59.26,39.4,16.63,16.59,29.41,36.13,38.34,58.58,8.94,22.46,12.8,47.29,11.61,74.51-1.19,27.22-7.22,51.77-18.1,73.6-10.87,21.83-25.31,40.3-43.33,55.37ZM604.97-294.41c-18.02,15.1-38.86,26.44-62.48,34.1-23.65,7.62-49.08,10.86-76.3,9.67-28.22-1.24-53.88-6.72-77.01-16.39-23.14-9.7-43.02-22.98-59.62-39.81-16.64-16.83-29.27-36.6-37.94-59.32-8.68-22.69-12.43-47.4-11.26-74.13,1.17-26.7,7.07-50.87,17.69-72.47,10.62-21.6,24.93-40.07,42.97-55.41,18.01-15.31,38.98-26.8,62.88-34.41,23.88-7.64,49.93-10.83,78.15-9.59,27.22,1.19,52.27,6.62,75.16,16.31,22.87,9.66,42.63,22.81,59.26,39.4,16.63,16.59,29.41,36.13,38.34,58.58,8.94,22.46,12.8,47.29,11.61,74.51-1.19,27.22-7.22,51.77-18.1,73.6-10.87,21.83-25.31,40.3-43.33,55.36ZM1134.02,234.64c-18.02,15.1-38.86,26.44-62.48,34.1-23.65,7.62-49.08,10.86-76.3,9.67-28.21-1.24-53.88-6.72-77.01-16.39-23.14-9.7-43.02-22.98-59.62-39.81-16.64-16.83-29.27-36.6-37.94-59.32-8.68-22.69-12.44-47.4-11.26-74.13,1.17-26.7,7.07-50.87,17.69-72.47,10.62-21.6,24.93-40.07,42.97-55.41,18.01-15.31,38.98-26.8,62.88-34.41,23.88-7.64,49.93-10.83,78.15-9.59,27.22,1.19,52.27,6.62,75.16,16.31,22.87,9.66,42.63,22.81,59.26,39.4,16.63,16.59,29.41,36.13,38.34,58.58,8.94,22.46,12.8,47.29,11.61,74.51-1.19,27.22-7.22,51.77-18.1,73.6-10.87,21.83-25.31,40.3-43.33,55.37Zm529.05,529.05c-18.02,15.1-38.86,26.44-62.48,34.1-23.65,7.62-49.08,10.86-76.3,9.67-28.22-1.24-53.88-6.72-77.01-16.39-23.14-9.7-43.02-22.98-59.62-39.81-16.64-16.83-29.27-36.6-37.94-59.32-8.68-22.69-12.43-47.4-11.26-74.13,1.17-26.7,7.07-50.87,17.69-72.47,10.62-21.6,24.93-40.07,42.97-55.41,18.01-15.31,38.98-26.8,62.88-34.41,23.88-7.64,49.93-10.83,78.15-9.59,27.22,1.19,52.27,6.62,75.16,16.31,22.87,9.66,42.63,22.81,59.26,39.4,16.63,16.59,29.41,36.13,38.34,58.58,8.94,22.46,12.8,47.29,11.61,74.51-1.19,27.22-7.22,51.77-18.1,73.6-10.87,21.83-25.31,40.3-43.33,55.36Zm529.05,529.05c-18.02,15.1-38.86,26.44-62.48,34.1-23.65,7.62-49.08,10.86-76.3,9.67-28.21-1.24-53.88-6.72-77.01-16.39-23.14-9.7-43.02-22.98-59.62-39.81-16.64-16.83-29.27-36.6-37.94-59.32-8.68-22.69-12.44-47.4-11.26-74.13,1.17-26.7,7.07-50.87,17.69-72.47,10.62-21.6,24.93-40.07,42.97-55.41,18.01-15.31,38.98-26.8,62.88-34.41,23.88-7.64,49.93-10.83,78.15-9.59,27.22,1.19,52.27,6.62,75.16,16.31,22.87,9.66,42.63,22.81,59.26,39.4,16.63,16.59,29.41,36.13,38.34,58.58,8.94,22.46,12.8,47.29,11.61,74.51-1.19,27.22-7.22,51.77-18.1,73.6-10.87,21.83-25.31,40.3-43.33,55.37Zm529.05,529.05c-18.02,15.1-38.86,26.44-62.48,34.1-23.65,7.62-49.08,10.86-76.3,9.67-28.22-1.24-53.88-6.72-77.01-16.39-23.14-9.7-43.02-22.98-59.62-39.81-16.64-16.83-29.27-36.6-37.94-59.32-8.68-22.69-12.43-47.4-11.26-74.13,1.17-26.7,7.07-50.87,17.69-72.47,10.62-21.6,24.93-40.07,42.97-55.41,18.01-15.31,38.98-26.8,62.88-34.41,23.88-7.64,49.93-10.83,78.15-9.59,27.22,1.19,52.27,6.62,75.16,16.31,22.87,9.66,42.63,22.81,59.26,39.4,16.63,16.59,29.41,36.13,38.34,58.58,8.94,22.46,12.8,47.29,11.61,74.51-1.19,27.22-7.22,51.77-18.1,73.6-10.87,21.83-25.31,40.3-43.33,55.36Zm529.05,529.05c-18.02,15.1-38.86,26.44-62.48,34.1-23.65,7.62-49.08,10.86-76.3,9.67-28.21-1.24-53.88-6.72-77.01-16.39-23.14-9.7-43.02-22.98-59.62-39.81-16.64-16.83-29.27-36.6-37.94-59.32-8.68-22.69-12.44-47.4-11.26-74.13,1.17-26.7,7.07-50.87,17.69-72.47,10.62-21.6,24.93-40.07,42.97-55.41,18.01-15.31,38.98-26.8,62.88-34.41,23.88-7.64,49.93-10.83,78.15-9.59,27.22,1.19,52.27,6.62,75.16,16.31,22.87,9.66,42.63,22.81,59.26,39.4,16.63,16.59,29.41,36.13,38.34,58.58,8.94,22.46,12.8,47.29,11.61,74.51-1.19,27.22-7.22,51.77-18.1,73.6-10.87,21.83-25.31,40.3-43.33,55.37Zm529.05,529.05c-18.02,15.1-38.86,26.44-62.48,34.1-23.65,7.62-49.08,10.86-76.3,9.67-28.22-1.24-53.88-6.72-77.01-16.39-23.14-9.7-43.02-22.98-59.62-39.81-16.64-16.83-29.27-36.6-37.94-59.32-8.68-22.69-12.43-47.4-11.26-74.13,1.17-26.7,7.07-50.87,17.69-72.47,10.62-21.6,24.93-40.07,42.97-55.41,18.01-15.31,38.98-26.8,62.88-34.41,23.88-7.64,49.93-10.83,78.15-9.59,27.22,1.19,52.27,6.62,75.16,16.31,22.87,9.66,42.63,22.81,59.26,39.4,16.63,16.59,29.41,36.13,38.34,58.58,8.94,22.46,12.8,47.29,11.61,74.51-1.19,27.22-7.22,51.77-18.1,73.6-10.87,21.83-25.31,40.3-43.33,55.36Z"/>
    <path class="cls-3" d="M3210.18,3047.41c11.15-15.8,20.92-32.91,28.87-51.75,14.39-34.09,22.48-71.65,24.28-112.74,1.78-40.6-3.01-78.37-14.37-113.31-11.36-34.97-28.37-65.47-51.03-91.49-22.66-26.06-50.64-46.86-83.92-62.46-33.29-15.59-70.97-24.3-113.04-26.14-41.08-1.8-78.88,3.59-113.39,16.22-28.46,10.4-53.52,25.08-75.89,43.19l-64.19-64.19-66.37-66.37c11.15-15.8,20.92-32.91,28.87-51.75,14.39-34.09,22.48-71.65,24.28-112.74,1.78-40.6-3.01-78.37-14.37-113.31-11.36-34.97-28.37-65.47-51.03-91.49-22.66-26.05-50.64-46.86-83.92-62.46-33.29-15.59-70.97-24.3-113.04-26.14-41.08-1.8-78.88,3.59-113.39,16.22-28.46,10.4-53.52,25.08-75.89,43.19l-64.19-64.19-66.37-66.37c11.15-15.8,20.92-32.91,28.87-51.75,14.39-34.09,22.48-71.65,24.28-112.74,1.78-40.6-3.01-78.37-14.37-113.31-11.36-34.97-28.37-65.47-51.03-91.49-22.66-26.06-50.64-46.86-83.92-62.46-33.29-15.59-70.97-24.3-113.04-26.14-41.08-1.8-78.88,3.59-113.39,16.22-28.46,10.4-53.52,25.08-75.89,43.19l-64.19-64.19-66.37-66.37c11.15-15.8,20.92-32.91,28.87-51.75,14.39-34.09,22.48-71.65,24.28-112.74,1.78-40.6-3.01-78.37-14.37-113.31-11.36-34.97-28.37-65.47-51.03-91.49-22.66-26.05-50.64-46.86-83.92-62.46-33.29-15.59-70.97-24.3-113.04-26.14-41.08-1.8-78.88,3.59-113.39,16.22-28.46,10.4-53.52,25.08-75.89,43.19l-64.19-64.19-66.37-66.37c11.15-15.8,20.92-32.91,28.87-51.75,14.39-34.09,22.48-71.65,24.28-112.74,1.78-40.6-3.01-78.37-14.37-113.31-11.36-34.97-28.37-65.47-51.03-91.49-22.66-26.06-50.64-46.86-83.92-62.46-33.29-15.59-70.97-24.3-113.04-26.14-41.08-1.8-78.88,3.59-113.39,16.22-28.46,10.4-53.52,25.08-75.89,43.19l-64.19-64.19-66.37-66.37c11.15-15.8,20.92-32.91,28.87-51.75,14.39-34.09,22.48-71.65,24.28-112.74,1.78-40.6-3.01-78.37-14.37-113.31-11.36-34.97-28.37-65.47-51.03-91.49-22.66-26.05-50.64-46.86-83.92-62.46-33.29-15.59-70.97-24.3-113.04-26.14-41.08-1.8-78.88,3.59-113.39,16.22-28.46,10.4-53.52,25.08-75.89,43.19L102.27-60.51,35.9-126.88c11.15-15.8,20.92-32.91,28.87-51.75,14.39-34.09,22.48-71.65,24.28-112.74,1.78-40.6-3.01-78.37-14.37-113.31-11.36-34.97-28.37-65.47-51.03-91.49-22.66-26.06-50.64-46.86-83.92-62.46-33.29-15.59-70.97-24.3-113.04-26.14-41.08-1.8-78.88,3.59-113.39,16.22-28.46,10.4-53.52,25.08-75.89,43.19l-64.19-64.19-66.37-66.37c11.15-15.8,20.92-32.91,28.87-51.75,14.39-34.09,22.48-71.65,24.28-112.74,1.78-40.6-3.01-78.37-14.37-113.31-11.36-34.97-28.37-65.47-51.03-91.49-22.66-26.05-50.64-46.86-83.92-62.46-33.29-15.59-70.97-24.3-113.04-26.14-41.08-1.8-78.88,3.59-113.39,16.22-28.46,10.4-53.52,25.08-75.89,43.19l-64.19-64.19-66.37-66.37c11.15-15.8,20.92-32.91,28.87-51.75,14.39-34.09,22.48-71.65,24.28-112.74,1.78-40.6-3.01-78.37-14.37-113.31-11.36-34.97-28.37-65.47-51.03-91.49-22.66-26.06-50.64-46.86-83.92-62.46-33.29-15.59-70.97-24.3-113.04-26.14-41.08-1.8-78.88,3.59-113.39,16.22-28.46,10.4-53.52,25.08-75.89,43.19l-64.19-64.19-66.37-66.37c11.15-15.8,20.92-32.91,28.87-51.75,14.39-34.09,22.48-71.65,24.28-112.74,1.78-40.6-3.01-78.37-14.37-113.31-11.36-34.97-28.37-65.47-51.03-91.49-22.66-26.05-50.64-46.86-83.92-62.46-33.29-15.59-70.97-24.3-113.04-26.14-41.08-1.8-78.88,3.59-113.39,16.22-28.46,10.4-53.52,25.08-75.89,43.19l-64.19-64.19-35.16,35.16,63.68,63.68c-15.74,18.82-29.1,39.88-39.69,63.56-15.12,33.78-23.57,70.97-25.35,111.57-1.8,41.08,3.35,79.23,15.44,114.48,12.09,35.25,29.84,66.02,53.23,92.35,23.39,26.3,51.73,47.28,85.02,62.87,33.28,15.56,70.46,24.28,111.54,26.08,42.07,1.84,80.36-3.56,114.89-16.15,33.42-12.22,62.22-30.02,86.6-53.08l63.69,63.69,63.68,63.68c-15.74,18.82-29.1,39.88-39.69,63.56-15.12,33.78-23.57,70.97-25.35,111.57-1.8,41.08,3.35,79.23,15.44,114.48,12.09,35.25,29.84,66.02,53.23,92.35,23.39,26.3,51.73,47.28,85.02,62.87,33.28,15.56,70.46,24.28,111.54,26.08,42.07,1.84,80.36-3.56,114.89-16.15,33.42-12.22,62.22-30.02,86.6-53.08l63.69,63.69,63.68,63.68c-15.74,18.82-29.1,39.88-39.69,63.56-15.12,33.78-23.57,70.97-25.35,111.57-1.8,41.08,3.35,79.23,15.44,114.48,12.09,35.25,29.84,66.02,53.23,92.35,23.39,26.3,51.73,47.28,85.02,62.87,33.28,15.56,70.46,24.28,111.54,26.08,42.07,1.84,80.36-3.56,114.89-16.15,33.42-12.22,62.22-30.02,86.6-53.08l63.69,63.69,63.68,63.68c-15.74,18.82-29.1,39.88-39.69,63.56-15.12,33.78-23.57,70.97-25.35,111.57-1.8,41.08,3.35,79.23,15.44,114.48,12.09,35.25,29.84,66.02,53.23,92.35,23.39,26.3,51.73,47.28,85.02,62.87,33.28,15.56,70.46,24.28,111.54,26.08,42.07,1.84,80.36-3.56,114.89-16.15C-49.76-48.18-20.96-65.97,3.41-89.03L67.11-25.34l63.68,63.68c-15.74,18.82-29.1,39.88-39.69,63.56-15.12,33.78-23.57,70.97-25.35,111.57-1.8,41.08,3.35,79.23,15.44,114.48,12.09,35.25,29.84,66.02,53.23,92.35,23.39,26.3,51.73,47.28,85.02,62.87,33.28,15.56,70.46,24.28,111.54,26.08,42.07,1.84,80.36-3.56,114.89-16.15,33.42-12.22,62.22-30.02,86.6-53.08l63.69,63.69,63.68,63.68c-15.74,18.82-29.1,39.88-39.69,63.56-15.12,33.78-23.57,70.97-25.35,111.57-1.8,41.08,3.35,79.23,15.44,114.48,12.09,35.25,29.84,66.02,53.23,92.35,23.39,26.3,51.73,47.28,85.02,62.87,33.28,15.56,70.46,24.28,111.54,26.08,42.07,1.84,80.36-3.56,114.89-16.15,33.42-12.22,62.22-30.02,86.6-53.08l63.69,63.69,63.68,63.68c-15.74,18.82-29.1,39.88-39.69,63.56-15.12,33.78-23.57,70.97-25.35,111.57-1.8,41.08,3.35,79.23,15.44,114.48,12.09,35.25,29.84,66.02,53.23,92.35,23.39,26.3,51.73,47.28,85.02,62.87,33.28,15.56,70.46,24.28,111.54,26.08,42.07,1.84,80.36-3.56,114.89-16.15,33.42-12.22,62.22-30.02,86.6-53.08l63.69,63.69,63.68,63.68c-15.74,18.82-29.1,39.88-39.69,63.56-15.12,33.78-23.57,70.97-25.35,111.57-1.8,41.08,3.35,79.23,15.44,114.48,12.09,35.25,29.84,66.02,53.23,92.35,23.39,26.3,51.73,47.28,85.02,62.87,33.28,15.56,70.46,24.28,111.54,26.08,42.07,1.84,80.36-3.56,114.89-16.15,33.42-12.22,62.22-30.02,86.6-53.08l63.69,63.69,63.68,63.68c-15.74,18.82-29.1,39.88-39.69,63.56-15.12,33.78-23.57,70.97-25.35,111.57-1.8,41.08,3.35,79.23,15.44,114.48,12.09,35.25,29.84,66.02,53.23,92.35,23.39,26.3,51.73,47.28,85.02,62.87,33.28,15.56,70.46,24.28,111.54,26.08,42.07,1.84,80.36-3.56,114.89-16.15,33.42-12.22,62.22-30.02,86.6-53.08l63.69,63.69,63.68,63.68c-15.74,18.82-29.1,39.88-39.69,63.56-15.12,33.78-23.57,70.97-25.35,111.57-1.8,41.08,3.35,79.23,15.44,114.48,12.09,35.25,29.84,66.02,53.23,92.35,23.39,26.3,51.73,47.28,85.02,62.87,33.28,15.56,70.46,24.28,111.54,26.08,42.07,1.84,80.36-3.56,114.89-16.15,33.42-12.22,62.22-30.02,86.6-53.08l63.69,63.69,35.16-35.16-66.37-66.37ZM-1641.97-1752.42c-18.02,15.1-38.86,26.44-62.48,34.1-23.65,7.62-49.08,10.86-76.3,9.67-28.21-1.24-53.88-6.72-77.01-16.39-23.14-9.7-43.02-22.98-59.62-39.81-16.64-16.83-29.27-36.6-37.94-59.32-8.68-22.69-12.44-47.4-11.26-74.13,1.17-26.7,7.07-50.87,17.69-72.47,10.62-21.6,24.93-40.07,42.97-55.41,18.01-15.31,38.98-26.8,62.88-34.41,23.88-7.64,49.93-10.83,78.15-9.59,27.22,1.19,52.27,6.62,75.16,16.31,22.87,9.66,42.63,22.81,59.26,39.4,16.63,16.59,29.41,36.13,38.34,58.58,8.94,22.46,12.8,47.29,11.61,74.51-1.19,27.22-7.22,51.77-18.1,73.6-10.87,21.83-25.31,40.3-43.33,55.37Zm529.05,529.05c-18.02,15.1-38.86,26.44-62.48,34.1-23.65,7.62-49.08,10.86-76.3,9.67-28.22-1.24-53.88-6.72-77.01-16.39-23.14-9.7-43.02-22.98-59.62-39.81-16.64-16.83-29.27-36.6-37.94-59.32-8.68-22.69-12.43-47.4-11.26-74.13,1.17-26.7,7.07-50.87,17.69-72.47,10.62-21.6,24.93-40.07,42.97-55.41,18.01-15.31,38.98-26.8,62.88-34.41,23.88-7.64,49.93-10.83,78.15-9.59,27.22,1.19,52.27,6.62,75.16,16.31,22.87,9.66,42.63,22.81,59.26,39.4,16.63,16.59,29.41,36.13,38.34,58.58,8.94,22.46,12.8,47.29,11.61,74.51-1.19,27.22-7.22,51.77-18.1,73.6-10.87,21.83-25.31,40.3-43.33,55.36ZM-583.87-694.33c-18.02,15.1-38.86,26.44-62.48,34.1-23.65,7.62-49.08,10.86-76.3,9.67-28.21-1.24-53.88-6.72-77.01-16.39-23.14-9.7-43.02-22.98-59.62-39.81-16.64-16.83-29.27-36.6-37.94-59.32-8.68-22.69-12.44-47.4-11.26-74.13,1.17-26.7,7.07-50.87,17.69-72.47,10.62-21.6,24.93-40.07,42.97-55.41,18.01-15.31,38.98-26.8,62.88-34.41,23.88-7.64,49.93-10.83,78.15-9.59,27.22,1.19,52.27,6.62,75.16,16.31,22.87,9.66,42.63,22.81,59.26,39.4,16.63,16.59,29.41,36.13,38.34,58.58,8.94,22.46,12.8,47.29,11.61,74.51-1.19,27.22-7.22,51.77-18.1,73.6-10.87,21.83-25.31,40.3-43.33,55.37ZM-54.83-165.28c-18.02,15.1-38.86,26.44-62.48,34.1-23.65,7.62-49.08,10.86-76.3,9.67-28.22-1.24-53.88-6.72-77.01-16.39-23.14-9.7-43.02-22.98-59.62-39.81-16.64-16.83-29.27-36.6-37.94-59.32-8.68-22.69-12.43-47.4-11.26-74.13,1.17-26.7,7.07-50.87,17.69-72.47,10.62-21.6,24.93-40.07,42.97-55.41,18.01-15.31,38.98-26.8,62.88-34.41,23.88-7.64,49.93-10.83,78.15-9.59,27.22,1.19,52.27,6.62,75.16,16.31,22.87,9.66,42.63,22.81,59.26,39.4,16.63,16.59,29.41,36.13,38.34,58.58,8.94,22.46,12.8,47.29,11.61,74.51-1.19,27.22-7.22,51.77-18.1,73.6-10.87,21.83-25.31,40.3-43.33,55.36ZM474.22,363.77c-18.02,15.1-38.86,26.44-62.48,34.1-23.65,7.62-49.08,10.86-76.3,9.67-28.21-1.24-53.88-6.72-77.01-16.39-23.14-9.7-43.02-22.98-59.62-39.81-16.64-16.83-29.27-36.6-37.94-59.32-8.68-22.69-12.44-47.4-11.26-74.13,1.17-26.7,7.07-50.87,17.69-72.47,10.62-21.6,24.93-40.07,42.97-55.41,18.01-15.31,38.98-26.8,62.88-34.41,23.88-7.64,49.93-10.83,78.15-9.59,27.22,1.19,52.27,6.62,75.16,16.31,22.87,9.66,42.63,22.81,59.26,39.4,16.63,16.59,29.41,36.13,38.34,58.58,8.94,22.46,12.8,47.29,11.61,74.51-1.19,27.22-7.22,51.77-18.1,73.6-10.87,21.83-25.31,40.3-43.33,55.37ZM1003.27,892.81c-18.02,15.1-38.86,26.44-62.48,34.1-23.65,7.62-49.08,10.86-76.3,9.67-28.22-1.24-53.88-6.72-77.01-16.39-23.14-9.7-43.02-22.98-59.62-39.81-16.64-16.83-29.27-36.6-37.94-59.32-8.68-22.69-12.43-47.4-11.26-74.13,1.17-26.7,7.07-50.87,17.69-72.47,10.62-21.6,24.93-40.07,42.97-55.41,18.01-15.31,38.98-26.8,62.88-34.41,23.88-7.64,49.93-10.83,78.15-9.59,27.22,1.19,52.27,6.62,75.16,16.31,22.87,9.66,42.63,22.81,59.26,39.4,16.63,16.59,29.41,36.13,38.34,58.58,8.94,22.46,12.8,47.29,11.61,74.51-1.19,27.22-7.22,51.77-18.1,73.6-10.87,21.83-25.31,40.3-43.33,55.36Zm529.05,529.05c-18.02,15.1-38.86,26.44-62.48,34.1-23.65,7.62-49.08,10.86-76.3,9.67-28.21-1.24-53.88-6.72-77.01-16.39-23.14-9.7-43.02-22.98-59.62-39.81-16.64-16.83-29.27-36.6-37.94-59.32-8.68-22.69-12.44-47.4-11.26-74.13,1.17-26.7,7.07-50.87,17.69-72.47,10.62-21.6,24.93-40.07,42.97-55.41,18.01-15.31,38.98-26.8,62.88-34.41,23.88-7.64,49.93-10.83,78.15-9.59,27.22,1.19,52.27,6.62,75.16,16.31,22.87,9.66,42.63,22.81,59.26,39.4,16.63,16.59,29.41,36.13,38.34,58.58,8.94,22.46,12.8,47.29,11.61,74.51-1.19,27.22-7.22,51.77-18.1,73.6-10.87,21.83-25.31,40.3-43.33,55.37Zm529.05,529.05c-18.02,15.1-38.86,26.44-62.48,34.1-23.65,7.62-49.08,10.86-76.3,9.67-28.22-1.24-53.88-6.72-77.01-16.39-23.14-9.7-43.02-22.98-59.62-39.81-16.64-16.83-29.27-36.6-37.94-59.32-8.68-22.69-12.43-47.4-11.26-74.13,1.17-26.7,7.07-50.87,17.69-72.47,10.62-21.6,24.93-40.07,42.97-55.41,18.01-15.31,38.98-26.8,62.88-34.41,23.88-7.64,49.93-10.83,78.15-9.59,27.22,1.19,52.27,6.62,75.16,16.31,22.87,9.66,42.63,22.81,59.26,39.4,16.63,16.59,29.41,36.13,38.34,58.58,8.94,22.46,12.8,47.29,11.61,74.51-1.19,27.22-7.22,51.77-18.1,73.6-10.87,21.83-25.31,40.3-43.33,55.36Zm529.05,529.05c-18.02,15.1-38.86,26.44-62.48,34.1-23.65,7.62-49.08,10.86-76.3,9.67-28.21-1.24-53.88-6.72-77.01-16.39-23.14-9.7-43.02-22.98-59.62-39.81-16.64-16.83-29.27-36.6-37.94-59.32-8.68-22.69-12.44-47.4-11.26-74.13,1.17-26.7,7.07-50.87,17.69-72.47,10.62-21.6,24.93-40.07,42.97-55.41,18.01-15.31,38.98-26.8,62.88-34.41,23.88-7.64,49.93-10.83,78.15-9.59,27.22,1.19,52.27,6.62,75.16,16.31,22.87,9.66,42.63,22.81,59.26,39.4,16.63,16.59,29.41,36.13,38.34,58.58,8.94,22.46,12.8,47.29,11.61,74.51-1.19,27.22-7.22,51.77-18.1,73.6-10.87,21.83-25.31,40.3-43.33,55.37Zm529.05,529.05c-18.02,15.1-38.86,26.44-62.48,34.1-23.65,7.62-49.08,10.86-76.3,9.67-28.22-1.24-53.88-6.72-77.01-16.39-23.14-9.7-43.02-22.98-59.62-39.81-16.64-16.83-29.27-36.6-37.94-59.32-8.68-22.69-12.43-47.4-11.26-74.13,1.17-26.7,7.07-50.87,17.69-72.47,10.62-21.6,24.93-40.07,42.97-55.41,18.01-15.31,38.98-26.8,62.88-34.41,23.88-7.64,49.93-10.83,78.15-9.59,27.22,1.19,52.27,6.62,75.16,16.31,22.87,9.66,42.63,22.81,59.26,39.4,16.63,16.59,29.41,36.13,38.34,58.58,8.94,22.46,12.8,47.29,11.61,74.51-1.19,27.22-7.22,51.77-18.1,73.6-10.87,21.83-25.31,40.3-43.33,55.36Z"/>
    <path class="cls-3" d="M3071.95,3716.31c11.15-15.8,20.92-32.91,28.87-51.75,14.39-34.09,22.48-71.65,24.28-112.74,1.78-40.6-3.01-78.37-14.37-113.31-11.36-34.97-28.37-65.47-51.03-91.49-22.66-26.06-50.64-46.86-83.92-62.46-33.29-15.59-70.97-24.3-113.04-26.14-41.08-1.8-78.88,3.59-113.39,16.22-28.46,10.4-53.52,25.08-75.89,43.19l-64.19-64.19-66.37-66.37c11.15-15.8,20.92-32.91,28.87-51.75,14.39-34.09,22.48-71.65,24.28-112.74,1.78-40.6-3.01-78.37-14.37-113.31-11.36-34.97-28.37-65.47-51.03-91.49-22.66-26.05-50.64-46.86-83.92-62.46-33.29-15.59-70.97-24.3-113.04-26.14-41.08-1.8-78.88,3.59-113.39,16.22-28.46,10.4-53.52,25.08-75.89,43.19l-64.19-64.19-66.37-66.37c11.15-15.8,20.92-32.91,28.87-51.75,14.39-34.09,22.48-71.65,24.28-112.74,1.78-40.6-3.01-78.37-14.37-113.31-11.36-34.97-28.37-65.47-51.03-91.49-22.66-26.06-50.64-46.86-83.92-62.46-33.29-15.59-70.97-24.3-113.04-26.14-41.08-1.8-78.88,3.59-113.39,16.22-28.46,10.4-53.52,25.08-75.89,43.19l-64.19-64.19-66.37-66.37c11.15-15.8,20.92-32.91,28.87-51.75,14.39-34.09,22.48-71.65,24.28-112.74,1.78-40.6-3.01-78.37-14.37-113.31-11.36-34.97-28.37-65.47-51.03-91.49-22.66-26.05-50.64-46.86-83.92-62.46-33.29-15.59-70.97-24.3-113.04-26.14-41.08-1.8-78.88,3.59-113.39,16.22-28.46,10.4-53.52,25.08-75.89,43.19l-64.19-64.19-66.37-66.37c11.15-15.8,20.92-32.91,28.87-51.75,14.39-34.09,22.48-71.65,24.28-112.74,1.78-40.6-3.01-78.37-14.37-113.31-11.36-34.97-28.37-65.47-51.03-91.49-22.66-26.06-50.64-46.86-83.92-62.46-33.29-15.59-70.97-24.3-113.04-26.14-41.08-1.8-78.88,3.59-113.39,16.22-28.46,10.4-53.52,25.08-75.89,43.19l-64.19-64.19-66.37-66.37c11.15-15.8,20.92-32.91,28.87-51.75,14.39-34.09,22.48-71.65,24.28-112.74,1.78-40.6-3.01-78.37-14.37-113.31-11.36-34.97-28.37-65.47-51.03-91.49-22.66-26.05-50.64-46.86-83.92-62.46-33.29-15.59-70.97-24.3-113.04-26.14-41.08-1.8-78.88,3.59-113.39,16.22-28.46,10.4-53.52,25.08-75.89,43.19l-64.19-64.19-66.37-66.37c11.15-15.8,20.92-32.91,28.87-51.75,14.39-34.09,22.48-71.65,24.28-112.74,1.78-40.6-3.01-78.37-14.37-113.31-11.36-34.97-28.37-65.47-51.03-91.49-22.66-26.06-50.64-46.86-83.92-62.46-33.29-15.59-70.97-24.3-113.04-26.14-41.08-1.8-78.88,3.59-113.39,16.22-28.46,10.4-53.52,25.08-75.89,43.19l-64.19-64.19L-631.38,12.98c11.15-15.8,20.92-32.91,28.87-51.75,14.39-34.09,22.48-71.65,24.28-112.74,1.78-40.6-3.01-78.37-14.37-113.31-11.36-34.97-28.37-65.47-51.03-91.49-22.66-26.05-50.64-46.86-83.92-62.46-33.29-15.59-70.97-24.3-113.04-26.14-41.08-1.8-78.88,3.59-113.39,16.22-28.46,10.4-53.52,25.08-75.89,43.19l-64.19-64.19-66.37-66.37c11.15-15.8,20.92-32.91,28.87-51.75,14.39-34.09,22.48-71.65,24.28-112.74,1.78-40.6-3.01-78.37-14.37-113.31-11.36-34.97-28.37-65.47-51.03-91.49-22.66-26.06-50.64-46.86-83.92-62.46-33.29-15.59-70.97-24.3-113.04-26.14-41.08-1.8-78.88,3.59-113.39,16.22-28.46,10.4-53.52,25.08-75.89,43.19l-64.19-64.19-66.37-66.37c11.15-15.8,20.92-32.91,28.87-51.75,14.39-34.09,22.48-71.65,24.28-112.74,1.78-40.6-3.01-78.37-14.37-113.31-11.36-34.97-28.37-65.47-51.03-91.49-22.66-26.05-50.64-46.86-83.92-62.46-33.29-15.59-70.97-24.3-113.04-26.14-41.08-1.8-78.88,3.59-113.39,16.22-28.46,10.4-53.52,25.08-75.89,43.19l-64.19-64.19-35.16,35.16,63.68,63.68c-15.74,18.82-29.1,39.88-39.69,63.56-15.12,33.78-23.57,70.97-25.35,111.57-1.8,41.08,3.35,79.23,15.44,114.48,12.09,35.25,29.84,66.02,53.23,92.35,23.39,26.3,51.73,47.28,85.02,62.87,33.28,15.56,70.46,24.28,111.54,26.08,42.07,1.84,80.36-3.56,114.89-16.15,33.42-12.22,62.22-30.02,86.6-53.08l63.69,63.69,63.68,63.68c-15.74,18.82-29.1,39.88-39.69,63.56-15.12,33.78-23.57,70.97-25.35,111.57-1.8,41.08,3.35,79.23,15.44,114.48,12.09,35.25,29.84,66.02,53.23,92.35,23.39,26.3,51.73,47.28,85.02,62.87,33.28,15.56,70.46,24.28,111.54,26.08,42.07,1.84,80.36-3.56,114.89-16.15,33.42-12.22,62.22-30.02,86.6-53.08l63.69,63.69,63.68,63.68c-15.74,18.82-29.1,39.88-39.69,63.56-15.12,33.78-23.57,70.97-25.35,111.57-1.8,41.08,3.35,79.23,15.44,114.48,12.09,35.25,29.84,66.02,53.23,92.35,23.39,26.3,51.73,47.28,85.02,62.87,33.28,15.56,70.46,24.28,111.54,26.08,42.07,1.84,80.36-3.56,114.89-16.15,33.42-12.22,62.22-30.02,86.6-53.08l63.69,63.69,63.68,63.68c-15.74,18.82-29.1,39.88-39.69,63.56-15.12,33.78-23.57,70.97-25.35,111.57-1.8,41.08,3.35,79.23,15.44,114.48,12.09,35.25,29.84,66.02,53.23,92.35,23.39,26.3,51.73,47.28,85.02,62.87,33.28,15.56,70.46,24.28,111.54,26.08,42.07,1.84,80.36-3.56,114.89-16.15,33.42-12.22,62.22-30.02,86.6-53.08l63.69,63.69,63.68,63.68c-15.74,18.82-29.1,39.88-39.69,63.56-15.12,33.78-23.57,70.97-25.35,111.57-1.8,41.08,3.35,79.23,15.44,114.48,12.09,35.25,29.84,66.02,53.23,92.35,23.39,26.3,51.73,47.28,85.02,62.87,33.28,15.56,70.46,24.28,111.54,26.08,42.07,1.84,80.36-3.56,114.89-16.15,33.42-12.22,62.22-30.02,86.6-53.08l63.69,63.69,63.68,63.68c-15.74,18.82-29.1,39.88-39.69,63.56-15.12,33.78-23.57,70.97-25.35,111.57-1.8,41.08,3.35,79.23,15.44,114.48,12.09,35.25,29.84,66.02,53.23,92.35,23.39,26.3,51.73,47.28,85.02,62.87,33.28,15.56,70.46,24.28,111.54,26.08,42.07,1.84,80.36-3.56,114.89-16.15,33.42-12.22,62.22-30.02,86.6-53.08l63.69,63.69,63.68,63.68c-15.74,18.82-29.1,39.88-39.69,63.56-15.12,33.78-23.57,70.97-25.35,111.57-1.8,41.08,3.35,79.23,15.44,114.48,12.09,35.25,29.84,66.02,53.23,92.35,23.39,26.3,51.73,47.28,85.02,62.87,33.28,15.56,70.46,24.28,111.54,26.08,42.07,1.84,80.36-3.56,114.89-16.15,33.42-12.22,62.22-30.02,86.6-53.08l63.69,63.69,63.68,63.68c-15.74,18.82-29.1,39.88-39.69,63.56-15.12,33.78-23.57,70.97-25.35,111.57-1.8,41.08,3.35,79.23,15.44,114.48,12.09,35.25,29.84,66.02,53.23,92.35,23.39,26.3,51.73,47.28,85.02,62.87,33.28,15.56,70.46,24.28,111.54,26.08,42.07,1.84,80.36-3.56,114.89-16.15,33.42-12.22,62.22-30.02,86.6-53.08l63.69,63.69,63.68,63.68c-15.74,18.82-29.1,39.88-39.69,63.56-15.12,33.78-23.57,70.97-25.35,111.57-1.8,41.08,3.35,79.23,15.44,114.48,12.09,35.25,29.84,66.02,53.23,92.35,23.39,26.3,51.73,47.28,85.02,62.87,33.28,15.56,70.46,24.28,111.54,26.08,42.07,1.84,80.36-3.56,114.89-16.15,33.42-12.22,62.22-30.02,86.6-53.08l63.69,63.69,63.68,63.68c-15.74,18.82-29.1,39.88-39.69,63.56-15.12,33.78-23.57,70.97-25.35,111.57-1.8,41.08,3.35,79.23,15.44,114.48,12.09,35.25,29.84,66.02,53.23,92.35,23.39,26.3,51.73,47.28,85.02,62.87,33.28,15.56,70.46,24.28,111.54,26.08,42.07,1.84,80.36-3.56,114.89-16.15,33.42-12.22,62.22-30.02,86.6-53.08l63.69,63.69,35.16-35.16-66.37-66.37ZM-1780.2-1083.52c-18.02,15.1-38.86,26.44-62.48,34.1-23.65,7.62-49.08,10.86-76.3,9.67-28.21-1.24-53.88-6.72-77.01-16.39-23.14-9.7-43.02-22.98-59.62-39.81-16.64-16.83-29.27-36.6-37.94-59.32-8.68-22.69-12.44-47.4-11.26-74.13,1.17-26.7,7.07-50.87,17.69-72.47,10.62-21.6,24.93-40.07,42.97-55.41,18.01-15.31,38.98-26.8,62.88-34.41,23.88-7.64,49.93-10.83,78.15-9.59,27.22,1.19,52.27,6.62,75.16,16.31,22.87,9.66,42.63,22.81,59.26,39.4,16.63,16.59,29.41,36.13,38.34,58.58,8.94,22.46,12.8,47.29,11.61,74.51-1.19,27.22-7.22,51.77-18.1,73.6-10.87,21.83-25.31,40.3-43.33,55.37Zm529.05,529.05c-18.02,15.1-38.86,26.44-62.48,34.1-23.65,7.62-49.08,10.86-76.3,9.67-28.22-1.24-53.88-6.72-77.01-16.39-23.14-9.7-43.02-22.98-59.62-39.81-16.64-16.83-29.27-36.6-37.94-59.32-8.68-22.69-12.43-47.4-11.26-74.13,1.17-26.7,7.07-50.87,17.69-72.47,10.62-21.6,24.93-40.07,42.97-55.41,18.01-15.31,38.98-26.8,62.88-34.41,23.88-7.64,49.93-10.83,78.15-9.59,27.22,1.19,52.27,6.62,75.16,16.31,22.87,9.66,42.63,22.81,59.26,39.4,16.63,16.59,29.41,36.13,38.34,58.58,8.94,22.46,12.8,47.29,11.61,74.51-1.19,27.22-7.22,51.77-18.1,73.6-10.87,21.83-25.31,40.3-43.33,55.36ZM-722.11-25.43c-18.02,15.1-38.86,26.44-62.48,34.1-23.65,7.62-49.08,10.86-76.3,9.67-28.21-1.24-53.88-6.72-77.01-16.39-23.14-9.7-43.02-22.98-59.62-39.81-16.64-16.83-29.27-36.6-37.94-59.32-8.68-22.69-12.44-47.4-11.26-74.13,1.17-26.7,7.07-50.87,17.69-72.47,10.62-21.6,24.93-40.07,42.97-55.41,18.01-15.31,38.98-26.8,62.88-34.41,23.88-7.64,49.93-10.83,78.15-9.59,27.22,1.19,52.27,6.62,75.16,16.31,22.87,9.66,42.63,22.81,59.26,39.4,16.63,16.59,29.41,36.13,38.34,58.58,8.94,22.46,12.8,47.29,11.61,74.51-1.19,27.22-7.22,51.77-18.1,73.6-10.87,21.83-25.31,40.3-43.33,55.37ZM-193.06,503.62c-18.02,15.1-38.86,26.44-62.48,34.1-23.65,7.62-49.08,10.86-76.3,9.67-28.22-1.24-53.88-6.72-77.01-16.39-23.14-9.7-43.02-22.98-59.62-39.81-16.64-16.83-29.27-36.6-37.94-59.32-8.68-22.69-12.43-47.4-11.26-74.13,1.17-26.7,7.07-50.87,17.69-72.47,10.62-21.6,24.93-40.07,42.97-55.41,18.01-15.31,38.98-26.8,62.88-34.41,23.88-7.64,49.93-10.83,78.15-9.59,27.22,1.19,52.27,6.62,75.16,16.31,22.87,9.66,42.63,22.81,59.26,39.4,16.63,16.59,29.41,36.13,38.34,58.58,8.94,22.46,12.8,47.29,11.61,74.51-1.19,27.22-7.22,51.77-18.1,73.6-10.87,21.83-25.31,40.3-43.33,55.36ZM335.99,1032.67c-18.02,15.1-38.86,26.44-62.48,34.1-23.65,7.62-49.08,10.86-76.3,9.67-28.21-1.24-53.88-6.72-77.01-16.39-23.14-9.7-43.02-22.98-59.62-39.81-16.64-16.83-29.27-36.6-37.94-59.32-8.68-22.69-12.44-47.4-11.26-74.13,1.17-26.7,7.07-50.87,17.69-72.47,10.62-21.6,24.93-40.07,42.97-55.41,18.01-15.31,38.98-26.8,62.88-34.41,23.88-7.64,49.93-10.83,78.15-9.59,27.22,1.19,52.27,6.62,75.16,16.31,22.87,9.66,42.63,22.81,59.26,39.4,16.63,16.59,29.41,36.13,38.34,58.58,8.94,22.46,12.8,47.29,11.61,74.51-1.19,27.22-7.22,51.77-18.1,73.6-10.87,21.83-25.31,40.3-43.33,55.37Zm529.05,529.05c-18.02,15.1-38.86,26.44-62.48,34.1-23.65,7.62-49.08,10.86-76.3,9.67-28.22-1.24-53.88-6.72-77.01-16.39-23.14-9.7-43.02-22.98-59.62-39.81-16.64-16.83-29.27-36.6-37.94-59.32-8.68-22.69-12.43-47.4-11.26-74.13,1.17-26.7,7.07-50.87,17.69-72.47,10.62-21.6,24.93-40.07,42.97-55.41,18.01-15.31,38.98-26.8,62.88-34.41,23.88-7.64,49.93-10.83,78.15-9.59,27.22,1.19,52.27,6.62,75.16,16.31,22.87,9.66,42.63,22.81,59.26,39.4,16.63,16.59,29.41,36.13,38.34,58.58,8.94,22.46,12.8,47.29,11.61,74.51-1.19,27.22-7.22,51.77-18.1,73.6-10.87,21.83-25.31,40.3-43.33,55.36Zm529.05,529.05c-18.02,15.1-38.86,26.44-62.48,34.1-23.65,7.62-49.08,10.86-76.3,9.67-28.21-1.24-53.88-6.72-77.01-16.39-23.14-9.7-43.02-22.98-59.62-39.81-16.64-16.83-29.27-36.6-37.94-59.32-8.68-22.69-12.44-47.4-11.26-74.13,1.17-26.7,7.07-50.87,17.69-72.47,10.62-21.6,24.93-40.07,42.97-55.41,18.01-15.31,38.98-26.8,62.88-34.41,23.88-7.64,49.93-10.83,78.15-9.59,27.22,1.19,52.27,6.62,75.16,16.31,22.87,9.66,42.63,22.81,59.26,39.4,16.63,16.59,29.41,36.13,38.34,58.58,8.94,22.46,12.8,47.29,11.61,74.51-1.19,27.22-7.22,51.77-18.1,73.6-10.87,21.83-25.31,40.3-43.33,55.37Zm529.05,529.05c-18.02,15.1-38.86,26.44-62.48,34.1-23.65,7.62-49.08,10.86-76.3,9.67-28.22-1.24-53.88-6.72-77.01-16.39-23.14-9.7-43.02-22.98-59.62-39.81-16.64-16.83-29.27-36.6-37.94-59.32-8.68-22.69-12.43-47.4-11.26-74.13,1.17-26.7,7.07-50.87,17.69-72.47,10.62-21.6,24.93-40.07,42.97-55.41,18.01-15.31,38.98-26.8,62.88-34.41,23.88-7.64,49.93-10.83,78.15-9.59,27.22,1.19,52.27,6.62,75.16,16.31,22.87,9.66,42.63,22.81,59.26,39.4,16.63,16.59,29.41,36.13,38.34,58.58,8.94,22.46,12.8,47.29,11.61,74.51-1.19,27.22-7.22,51.77-18.1,73.6-10.87,21.83-25.31,40.3-43.33,55.36Zm529.05,529.05c-18.02,15.1-38.86,26.44-62.48,34.1-23.65,7.62-49.08,10.86-76.3,9.67-28.21-1.24-53.88-6.72-77.01-16.39-23.14-9.7-43.02-22.98-59.62-39.81-16.64-16.83-29.27-36.6-37.94-59.32-8.68-22.69-12.44-47.4-11.26-74.13,1.17-26.7,7.07-50.87,17.69-72.47,10.62-21.6,24.93-40.07,42.97-55.41,18.01-15.31,38.98-26.8,62.88-34.41,23.88-7.64,49.93-10.83,78.15-9.59,27.22,1.19,52.27,6.62,75.16,16.31,22.87,9.66,42.63,22.81,59.26,39.4,16.63,16.59,29.41,36.13,38.34,58.58,8.94,22.46,12.8,47.29,11.61,74.51-1.19,27.22-7.22,51.77-18.1,73.6-10.87,21.83-25.31,40.3-43.33,55.37Zm529.05,529.05c-18.02,15.1-38.86,26.44-62.48,34.1-23.65,7.62-49.08,10.86-76.3,9.67-28.22-1.24-53.88-6.72-77.01-16.39-23.14-9.7-43.02-22.98-59.62-39.81-16.64-16.83-29.27-36.6-37.94-59.32-8.68-22.69-12.43-47.4-11.26-74.13,1.17-26.7,7.07-50.87,17.69-72.47,10.62-21.6,24.93-40.07,42.97-55.41,18.01-15.31,38.98-26.8,62.88-34.41,23.88-7.64,49.93-10.83,78.15-9.59,27.22,1.19,52.27,6.62,75.16,16.31,22.87,9.66,42.63,22.81,59.26,39.4,16.63,16.59,29.41,36.13,38.34,58.58,8.94,22.46,12.8,47.29,11.61,74.51-1.19,27.22-7.22,51.77-18.1,73.6-10.87,21.83-25.31,40.3-43.33,55.36Z"/>
    <path class="cls-3" d="M2273.93,4514.33c11.15-15.8,20.92-32.91,28.87-51.75,14.39-34.09,22.48-71.65,24.28-112.74,1.78-40.6-3.01-78.37-14.37-113.31-11.36-34.97-28.37-65.47-51.03-91.49-22.66-26.06-50.64-46.86-83.92-62.46-33.29-15.59-70.97-24.3-113.04-26.14-41.08-1.8-78.88,3.59-113.39,16.22-28.46,10.4-53.52,25.08-75.89,43.19l-64.19-64.19-66.37-66.37c11.15-15.8,20.92-32.91,28.87-51.75,14.39-34.09,22.48-71.65,24.28-112.74,1.78-40.6-3.01-78.37-14.37-113.31-11.36-34.97-28.37-65.47-51.03-91.49-22.66-26.05-50.64-46.86-83.92-62.46-33.29-15.59-70.97-24.3-113.04-26.14-41.08-1.8-78.88,3.59-113.39,16.22-28.46,10.4-53.52,25.08-75.89,43.19l-64.19-64.19-66.37-66.37c11.15-15.8,20.92-32.91,28.87-51.75,14.39-34.09,22.48-71.65,24.28-112.74,1.78-40.6-3.01-78.37-14.37-113.31-11.36-34.97-28.37-65.47-51.03-91.49-22.66-26.06-50.64-46.86-83.92-62.46-33.29-15.59-70.97-24.3-113.04-26.14-41.08-1.8-78.88,3.59-113.39,16.22-28.46,10.4-53.52,25.08-75.89,43.19l-64.19-64.19-66.37-66.37c11.15-15.8,20.92-32.91,28.87-51.75,14.39-34.09,22.48-71.65,24.28-112.74,1.78-40.6-3.01-78.37-14.37-113.31-11.36-34.97-28.37-65.47-51.03-91.49-22.66-26.05-50.64-46.86-83.92-62.46-33.29-15.59-70.97-24.3-113.04-26.14-41.08-1.8-78.88,3.59-113.39,16.22-28.46,10.4-53.52,25.08-75.89,43.19l-64.19-64.19-66.37-66.37c11.15-15.8,20.92-32.91,28.87-51.75,14.39-34.09,22.48-71.65,24.28-112.74,1.78-40.6-3.01-78.37-14.37-113.31-11.36-34.97-28.37-65.47-51.03-91.49-22.66-26.06-50.64-46.86-83.92-62.46-33.29-15.59-70.97-24.3-113.04-26.14-41.08-1.8-78.88,3.59-113.39,16.22-28.46,10.4-53.52,25.08-75.89,43.19l-64.19-64.19-66.37-66.37c11.15-15.8,20.92-32.91,28.87-51.75,14.39-34.09,22.48-71.65,24.28-112.74,1.78-40.6-3.01-78.37-14.37-113.31-11.36-34.97-28.37-65.47-51.03-91.49-22.66-26.05-50.64-46.86-83.92-62.46-33.29-15.59-70.97-24.3-113.04-26.14-41.08-1.8-78.88,3.59-113.39,16.22-28.46,10.4-53.52,25.08-75.89,43.19l-64.19-64.19-66.37-66.37c11.15-15.8,20.92-32.91,28.87-51.75,14.39-34.09,22.48-71.65,24.28-112.74,1.78-40.6-3.01-78.37-14.37-113.31-11.36-34.97-28.37-65.47-51.03-91.49-22.66-26.06-50.64-46.86-83.92-62.46-33.29-15.59-70.97-24.3-113.04-26.14-41.08-1.8-78.88,3.59-113.39,16.22-28.46,10.4-53.52,25.08-75.89,43.19l-64.19-64.19-66.37-66.37c11.15-15.8,20.92-32.91,28.87-51.75,14.39-34.09,22.48-71.65,24.28-112.74,1.78-40.6-3.01-78.37-14.37-113.31-11.36-34.97-28.37-65.47-51.03-91.49-22.66-26.05-50.64-46.86-83.92-62.46-33.29-15.59-70.97-24.3-113.04-26.14-41.08-1.8-78.88,3.59-113.39,16.22-28.46,10.4-53.52,25.08-75.89,43.19l-64.19-64.19-66.37-66.37c11.15-15.8,20.92-32.91,28.87-51.75,14.39-34.09,22.48-71.65,24.28-112.74,1.78-40.6-3.01-78.37-14.37-113.31-11.36-34.97-28.37-65.47-51.03-91.49-22.66-26.06-50.64-46.86-83.92-62.46-33.29-15.59-70.97-24.3-113.04-26.14-41.08-1.8-78.88,3.59-113.39,16.22-28.46,10.4-53.52,25.08-75.89,43.19l-64.19-64.19-66.37-66.37c11.15-15.8,20.92-32.91,28.87-51.75,14.39-34.09,22.48-71.65,24.28-112.74,1.78-40.6-3.01-78.37-14.37-113.31-11.36-34.97-28.37-65.47-51.03-91.49-22.66-26.05-50.64-46.86-83.92-62.46-33.29-15.59-70.97-24.3-113.04-26.14-41.08-1.8-78.88,3.59-113.39,16.22-28.46,10.4-53.52,25.08-75.89,43.19l-64.19-64.19-35.16,35.16,63.68,63.68c-15.74,18.82-29.1,39.88-39.69,63.56-15.12,33.78-23.57,70.97-25.35,111.57-1.8,41.08,3.35,79.23,15.44,114.48,12.09,35.25,29.84,66.02,53.23,92.35,23.39,26.3,51.73,47.28,85.02,62.87,33.28,15.56,70.46,24.28,111.54,26.08,42.07,1.84,80.36-3.56,114.89-16.15,33.42-12.22,62.22-30.02,86.6-53.08l63.69,63.69,63.68,63.68c-15.74,18.82-29.1,39.88-39.69,63.56-15.12,33.78-23.57,70.97-25.35,111.57-1.8,41.08,3.35,79.23,15.44,114.48,12.09,35.25,29.84,66.02,53.23,92.35,23.39,26.3,51.73,47.28,85.02,62.87,33.28,15.56,70.46,24.28,111.54,26.08,42.07,1.84,80.36-3.56,114.89-16.15,33.42-12.22,62.22-30.02,86.6-53.08l63.69,63.69,63.68,63.68c-15.74,18.82-29.1,39.88-39.69,63.56-15.12,33.78-23.57,70.97-25.35,111.57-1.8,41.08,3.35,79.23,15.44,114.48,12.09,35.25,29.84,66.02,53.23,92.35,23.39,26.3,51.73,47.28,85.02,62.87,33.28,15.56,70.46,24.28,111.54,26.08,42.07,1.84,80.36-3.56,114.89-16.15,33.42-12.22,62.22-30.02,86.6-53.08l63.69,63.69,63.68,63.68c-15.74,18.82-29.1,39.88-39.69,63.56-15.12,33.78-23.57,70.97-25.35,111.57-1.8,41.08,3.35,79.23,15.44,114.48,12.09,35.25,29.84,66.02,53.23,92.35,23.39,26.3,51.73,47.28,85.02,62.87,33.28,15.56,70.46,24.28,111.54,26.08,42.07,1.84,80.36-3.56,114.89-16.15,33.42-12.22,62.22-30.02,86.6-53.08l63.69,63.69,63.68,63.68c-15.74,18.82-29.1,39.88-39.69,63.56-15.12,33.78-23.57,70.97-25.35,111.57-1.8,41.08,3.35,79.23,15.44,114.48,12.09,35.25,29.84,66.02,53.23,92.35,23.39,26.3,51.73,47.28,85.02,62.87,33.28,15.56,70.46,24.28,111.54,26.08,42.07,1.84,80.36-3.56,114.89-16.15,33.42-12.22,62.22-30.02,86.6-53.08l63.69,63.69,63.68,63.68c-15.74,18.82-29.1,39.88-39.69,63.56-15.12,33.78-23.57,70.97-25.35,111.57-1.8,41.08,3.35,79.23,15.44,114.48,12.09,35.25,29.84,66.02,53.23,92.35,23.39,26.3,51.73,47.28,85.02,62.87,33.28,15.56,70.46,24.28,111.54,26.08,42.07,1.84,80.36-3.56,114.89-16.15,33.42-12.22,62.22-30.02,86.6-53.08l63.69,63.69,63.68,63.68c-15.74,18.82-29.1,39.88-39.69,63.56-15.12,33.78-23.57,70.97-25.35,111.57-1.8,41.08,3.35,79.23,15.44,114.48,12.09,35.25,29.84,66.02,53.23,92.35,23.39,26.3,51.73,47.28,85.02,62.87,33.28,15.56,70.46,24.28,111.54,26.08,42.07,1.84,80.36-3.56,114.89-16.15,33.42-12.22,62.22-30.02,86.6-53.08l63.69,63.69,63.68,63.68c-15.74,18.82-29.1,39.88-39.69,63.56-15.12,33.78-23.57,70.97-25.35,111.57-1.8,41.08,3.35,79.23,15.44,114.48,12.09,35.25,29.84,66.02,53.23,92.35,23.39,26.3,51.73,47.28,85.02,62.87,33.28,15.56,70.46,24.28,111.54,26.08,42.07,1.84,80.36-3.56,114.89-16.15,33.42-12.22,62.22-30.02,86.6-53.08l63.69,63.69,63.68,63.68c-15.74,18.82-29.1,39.88-39.69,63.56-15.12,33.78-23.57,70.97-25.35,111.57-1.8,41.08,3.35,79.23,15.44,114.48,12.09,35.25,29.84,66.02,53.23,92.35,23.39,26.3,51.73,47.28,85.02,62.87,33.28,15.56,70.46,24.28,111.54,26.08,42.07,1.84,80.36-3.56,114.89-16.15,33.42-12.22,62.22-30.02,86.6-53.08l63.69,63.69,63.68,63.68c-15.74,18.82-29.1,39.88-39.69,63.56-15.12,33.78-23.57,70.97-25.35,111.57-1.8,41.08,3.35,79.23,15.44,114.48,12.09,35.25,29.84,66.02,53.23,92.35,23.39,26.3,51.73,47.28,85.02,62.87,33.28,15.56,70.46,24.28,111.54,26.08,42.07,1.84,80.36-3.56,114.89-16.15,33.42-12.22,62.22-30.02,86.6-53.08l63.69,63.69,35.16-35.16-66.37-66.37ZM-2578.23-285.5c-18.02,15.1-38.86,26.44-62.48,34.1-23.65,7.62-49.08,10.86-76.3,9.67-28.21-1.24-53.88-6.72-77.01-16.39-23.14-9.7-43.02-22.98-59.62-39.81-16.64-16.83-29.27-36.6-37.94-59.32-8.68-22.69-12.44-47.4-11.26-74.13,1.17-26.7,7.07-50.87,17.69-72.47,10.62-21.6,24.93-40.07,42.97-55.41,18.01-15.31,38.98-26.8,62.88-34.41,23.88-7.64,49.93-10.83,78.15-9.59,27.22,1.19,52.27,6.62,75.16,16.31,22.87,9.66,42.63,22.81,59.26,39.4,16.63,16.59,29.41,36.13,38.34,58.58,8.94,22.46,12.8,47.29,11.61,74.51-1.19,27.22-7.22,51.77-18.1,73.6-10.87,21.83-25.31,40.3-43.33,55.37ZM-2049.18,243.55c-18.02,15.1-38.86,26.44-62.48,34.1-23.65,7.62-49.08,10.86-76.3,9.67-28.22-1.24-53.88-6.72-77.01-16.39-23.14-9.7-43.02-22.98-59.62-39.81-16.64-16.83-29.27-36.6-37.94-59.32-8.68-22.69-12.43-47.4-11.26-74.13,1.17-26.7,7.07-50.87,17.69-72.47,10.62-21.6,24.93-40.07,42.97-55.41,18.01-15.31,38.98-26.8,62.88-34.41,23.88-7.64,49.93-10.83,78.15-9.59,27.22,1.19,52.27,6.62,75.16,16.31,22.87,9.66,42.63,22.81,59.26,39.4,16.63,16.59,29.41,36.13,38.34,58.58,8.94,22.46,12.8,47.29,11.61,74.51-1.19,27.22-7.22,51.77-18.1,73.6-10.87,21.83-25.31,40.3-43.33,55.36Zm529.05,529.05c-18.02,15.1-38.86,26.44-62.48,34.1-23.65,7.62-49.08,10.86-76.3,9.67-28.21-1.24-53.88-6.72-77.01-16.39-23.14-9.7-43.02-22.98-59.62-39.81-16.64-16.83-29.27-36.6-37.94-59.32-8.68-22.69-12.44-47.4-11.26-74.13,1.17-26.7,7.07-50.87,17.69-72.47,10.62-21.6,24.93-40.07,42.97-55.41,18.01-15.31,38.98-26.8,62.88-34.41,23.88-7.64,49.93-10.83,78.15-9.59,27.22,1.19,52.27,6.62,75.16,16.31,22.87,9.66,42.63,22.81,59.26,39.4,16.63,16.59,29.41,36.13,38.34,58.58,8.94,22.46,12.8,47.29,11.61,74.51-1.19,27.22-7.22,51.77-18.1,73.6-10.87,21.83-25.31,40.3-43.33,55.37Zm529.05,529.05c-18.02,15.1-38.86,26.44-62.48,34.1-23.65,7.62-49.08,10.86-76.3,9.67-28.22-1.24-53.88-6.72-77.01-16.39-23.14-9.7-43.02-22.98-59.62-39.81-16.64-16.83-29.27-36.6-37.94-59.32-8.68-22.69-12.43-47.4-11.26-74.13,1.17-26.7,7.07-50.87,17.69-72.47,10.62-21.6,24.93-40.07,42.97-55.41,18.01-15.31,38.98-26.8,62.88-34.41,23.88-7.64,49.93-10.83,78.15-9.59,27.22,1.19,52.27,6.62,75.16,16.31,22.87,9.66,42.63,22.81,59.26,39.4,16.63,16.59,29.41,36.13,38.34,58.58,8.94,22.46,12.8,47.29,11.61,74.51-1.19,27.22-7.22,51.77-18.1,73.6-10.87,21.83-25.31,40.3-43.33,55.36ZM-462.04,1830.69c-18.02,15.1-38.86,26.44-62.48,34.1-23.65,7.62-49.08,10.86-76.3,9.67-28.21-1.24-53.88-6.72-77.01-16.39-23.14-9.7-43.02-22.98-59.62-39.81-16.64-16.83-29.27-36.6-37.94-59.32-8.68-22.69-12.44-47.4-11.26-74.13,1.17-26.7,7.07-50.87,17.69-72.47,10.62-21.6,24.93-40.07,42.97-55.41,18.01-15.31,38.98-26.8,62.88-34.41,23.88-7.64,49.93-10.83,78.15-9.59,27.22,1.19,52.27,6.62,75.16,16.31,22.87,9.66,42.63,22.81,59.26,39.4,16.63,16.59,29.41,36.13,38.34,58.58,8.94,22.46,12.8,47.29,11.61,74.51-1.19,27.22-7.22,51.77-18.1,73.6-10.87,21.83-25.31,40.3-43.33,55.37ZM67.01,2359.74c-18.02,15.1-38.86,26.44-62.48,34.1-23.65,7.62-49.08,10.86-76.3,9.67-28.22-1.24-53.88-6.72-77.01-16.39-23.14-9.7-43.02-22.98-59.62-39.81-16.64-16.83-29.27-36.6-37.94-59.32-8.68-22.69-12.43-47.4-11.26-74.13,1.17-26.7,7.07-50.87,17.69-72.47,10.62-21.6,24.93-40.07,42.97-55.41,18.01-15.31,38.98-26.8,62.88-34.41,23.88-7.64,49.93-10.83,78.15-9.59,27.22,1.19,52.27,6.62,75.16,16.31,22.87,9.66,42.63,22.81,59.26,39.4,16.63,16.59,29.41,36.13,38.34,58.58,8.94,22.46,12.8,47.29,11.61,74.51-1.19,27.22-7.22,51.77-18.1,73.6-10.87,21.83-25.31,40.3-43.33,55.36Zm529.05,529.05c-18.02,15.1-38.86,26.44-62.48,34.1-23.65,7.62-49.08,10.86-76.3,9.67-28.21-1.24-53.88-6.72-77.01-16.39-23.14-9.7-43.02-22.98-59.62-39.81-16.64-16.83-29.27-36.6-37.94-59.32-8.68-22.69-12.44-47.4-11.26-74.13,1.17-26.7,7.07-50.87,17.69-72.47,10.62-21.6,24.93-40.07,42.97-55.41,18.01-15.31,38.98-26.8,62.88-34.41,23.88-7.64,49.93-10.83,78.15-9.59,27.22,1.19,52.27,6.62,75.16,16.31,22.87,9.66,42.63,22.81,59.26,39.4,16.63,16.59,29.41,36.13,38.34,58.58,8.94,22.46,12.8,47.29,11.61,74.51-1.19,27.22-7.22,51.77-18.1,73.6-10.87,21.83-25.31,40.3-43.33,55.37Zm529.05,529.05c-18.02,15.1-38.86,26.44-62.48,34.1-23.65,7.62-49.08,10.86-76.3,9.67-28.22-1.24-53.88-6.72-77.01-16.39-23.14-9.7-43.02-22.98-59.62-39.81-16.64-16.83-29.27-36.6-37.94-59.32-8.68-22.69-12.43-47.4-11.26-74.13,1.17-26.7,7.07-50.87,17.69-72.47,10.62-21.6,24.93-40.07,42.97-55.41,18.01-15.31,38.98-26.8,62.88-34.41,23.88-7.64,49.93-10.83,78.15-9.59,27.22,1.19,52.27,6.62,75.16,16.31,22.87,9.66,42.63,22.81,59.26,39.4,16.63,16.59,29.41,36.13,38.34,58.58,8.94,22.46,12.8,47.29,11.61,74.51-1.19,27.22-7.22,51.77-18.1,73.6-10.87,21.83-25.31,40.3-43.33,55.36Zm529.05,529.05c-18.02,15.1-38.86,26.44-62.48,34.1-23.65,7.62-49.08,10.86-76.3,9.67-28.21-1.24-53.88-6.72-77.01-16.39-23.14-9.7-43.02-22.98-59.62-39.81-16.64-16.83-29.27-36.6-37.94-59.32-8.68-22.69-12.44-47.4-11.26-74.13,1.17-26.7,7.07-50.87,17.69-72.47,10.62-21.6,24.93-40.07,42.97-55.41,18.01-15.31,38.98-26.8,62.88-34.41,23.88-7.64,49.93-10.83,78.15-9.59,27.22,1.19,52.27,6.62,75.16,16.31,22.87,9.66,42.63,22.81,59.26,39.4,16.63,16.59,29.41,36.13,38.34,58.58,8.94,22.46,12.8,47.29,11.61,74.51-1.19,27.22-7.22,51.77-18.1,73.6-10.87,21.83-25.31,40.3-43.33,55.37Zm529.05,529.05c-18.02,15.1-38.86,26.44-62.48,34.1-23.65,7.62-49.08,10.86-76.3,9.67-28.22-1.24-53.88-6.72-77.01-16.39-23.14-9.7-43.02-22.98-59.62-39.81-16.64-16.83-29.27-36.6-37.94-59.32-8.68-22.69-12.43-47.4-11.26-74.13,1.17-26.7,7.07-50.87,17.69-72.47,10.62-21.6,24.93-40.07,42.97-55.41,18.01-15.31,38.98-26.8,62.88-34.41,23.88-7.64,49.93-10.83,78.15-9.59,27.22,1.19,52.27,6.62,75.16,16.31,22.87,9.66,42.63,22.81,59.26,39.4,16.63,16.59,29.41,36.13,38.34,58.58,8.94,22.46,12.8,47.29,11.61,74.51-1.19,27.22-7.22,51.77-18.1,73.6-10.87,21.83-25.31,40.3-43.33,55.36Z"/>
    <path class="cls-3" d="M2403.05,3854.54c11.15-15.8,20.92-32.91,28.87-51.75,14.39-34.09,22.48-71.65,24.28-112.74,1.78-40.6-3.01-78.37-14.37-113.31-11.36-34.97-28.37-65.47-51.03-91.49-22.66-26.06-50.64-46.86-83.92-62.46-33.29-15.59-70.97-24.3-113.04-26.14-41.08-1.8-78.88,3.59-113.39,16.22-28.46,10.4-53.52,25.08-75.89,43.19l-64.19-64.19-66.37-66.37c11.15-15.8,20.92-32.91,28.87-51.75,14.39-34.09,22.48-71.65,24.28-112.74,1.78-40.6-3.01-78.37-14.37-113.31-11.36-34.97-28.37-65.47-51.03-91.49-22.66-26.05-50.64-46.86-83.92-62.46-33.29-15.59-70.97-24.3-113.04-26.14-41.08-1.8-78.88,3.59-113.39,16.22-28.46,10.4-53.52,25.08-75.89,43.19l-64.19-64.19-66.37-66.37c11.15-15.8,20.92-32.91,28.87-51.75,14.39-34.09,22.48-71.65,24.28-112.74,1.78-40.6-3.01-78.37-14.37-113.31-11.36-34.97-28.37-65.47-51.03-91.49-22.66-26.06-50.64-46.86-83.92-62.46-33.29-15.59-70.97-24.3-113.04-26.14-41.08-1.8-78.88,3.59-113.39,16.22-28.46,10.4-53.52,25.08-75.89,43.19l-64.19-64.19-66.37-66.37c11.15-15.8,20.92-32.91,28.87-51.75,14.39-34.09,22.48-71.65,24.28-112.74,1.78-40.6-3.01-78.37-14.37-113.31-11.36-34.97-28.37-65.47-51.03-91.49-22.66-26.05-50.64-46.86-83.92-62.46-33.29-15.59-70.97-24.3-113.04-26.14-41.08-1.8-78.88,3.59-113.39,16.22-28.46,10.4-53.52,25.08-75.89,43.19l-64.19-64.19-66.37-66.37c11.15-15.8,20.92-32.91,28.87-51.75,14.39-34.09,22.48-71.65,24.28-112.74,1.78-40.6-3.01-78.37-14.37-113.31-11.36-34.97-28.37-65.47-51.03-91.49-22.66-26.06-50.64-46.86-83.92-62.46-33.29-15.59-70.97-24.3-113.04-26.14-41.08-1.8-78.88,3.59-113.39,16.22-28.46,10.4-53.52,25.08-75.89,43.19l-64.19-64.19-66.37-66.37c11.15-15.8,20.92-32.91,28.87-51.75,14.39-34.09,22.48-71.65,24.28-112.74,1.78-40.6-3.01-78.37-14.37-113.31-11.36-34.97-28.37-65.47-51.03-91.49-22.66-26.05-50.64-46.86-83.92-62.46-33.29-15.59-70.97-24.3-113.04-26.14-41.08-1.8-78.88,3.59-113.39,16.22-28.46,10.4-53.52,25.08-75.89,43.19l-64.19-64.19-66.37-66.37c11.15-15.8,20.92-32.91,28.87-51.75,14.39-34.09,22.48-71.65,24.28-112.74,1.78-40.6-3.01-78.37-14.37-113.31-11.36-34.97-28.37-65.47-51.03-91.49-22.66-26.06-50.64-46.86-83.92-62.46-33.29-15.59-70.97-24.3-113.04-26.14-41.08-1.8-78.88,3.59-113.39,16.22-28.46,10.4-53.52,25.08-75.89,43.19l-64.19-64.19-66.37-66.37c11.15-15.8,20.92-32.91,28.87-51.75,14.39-34.09,22.48-71.65,24.28-112.74,1.78-40.6-3.01-78.37-14.37-113.31-11.36-34.97-28.37-65.47-51.03-91.49-22.66-26.05-50.64-46.86-83.92-62.46-33.29-15.59-70.97-24.3-113.04-26.14-41.08-1.8-78.88,3.59-113.39,16.22-28.46,10.4-53.52,25.08-75.89,43.19l-64.19-64.19-66.37-66.37c11.15-15.8,20.92-32.91,28.87-51.75,14.39-34.09,22.48-71.65,24.28-112.74,1.78-40.6-3.01-78.37-14.37-113.31-11.36-34.97-28.37-65.47-51.03-91.49-22.66-26.06-50.64-46.86-83.92-62.46-33.29-15.59-70.97-24.3-113.04-26.14-41.08-1.8-78.88,3.59-113.39,16.22-28.46,10.4-53.52,25.08-75.89,43.19l-64.19-64.19-66.37-66.37c11.15-15.8,20.92-32.91,28.87-51.75,14.39-34.09,22.48-71.65,24.28-112.74,1.78-40.6-3.01-78.37-14.37-113.31-11.36-34.97-28.37-65.47-51.03-91.49-22.66-26.05-50.64-46.86-83.92-62.46-33.29-15.59-70.97-24.3-113.04-26.14-41.08-1.8-78.88,3.59-113.39,16.22-28.46,10.4-53.52,25.08-75.89,43.19l-64.19-64.19-35.16,35.16,63.68,63.68c-15.74,18.82-29.1,39.88-39.69,63.56-15.12,33.78-23.57,70.97-25.35,111.57-1.8,41.08,3.35,79.23,15.44,114.48,12.09,35.25,29.84,66.02,53.23,92.35,23.39,26.3,51.73,47.28,85.02,62.87,33.28,15.56,70.46,24.28,111.54,26.08,42.07,1.84,80.36-3.56,114.89-16.15,33.42-12.22,62.22-30.02,86.6-53.08l63.69,63.69,63.68,63.68c-15.74,18.82-29.1,39.88-39.69,63.56-15.12,33.78-23.57,70.97-25.35,111.57-1.8,41.08,3.35,79.23,15.44,114.48,12.09,35.25,29.84,66.02,53.23,92.35,23.39,26.3,51.73,47.28,85.02,62.87,33.28,15.56,70.46,24.28,111.54,26.08,42.07,1.84,80.36-3.56,114.89-16.15,33.42-12.22,62.22-30.02,86.6-53.08l63.69,63.69,63.68,63.68c-15.74,18.82-29.1,39.88-39.69,63.56-15.12,33.78-23.57,70.97-25.35,111.57-1.8,41.08,3.35,79.23,15.44,114.48,12.09,35.25,29.84,66.02,53.23,92.35,23.39,26.3,51.73,47.28,85.02,62.87,33.28,15.56,70.46,24.28,111.54,26.08,42.07,1.84,80.36-3.56,114.89-16.15,33.42-12.22,62.22-30.02,86.6-53.08l63.69,63.69,63.68,63.68c-15.74,18.82-29.1,39.88-39.69,63.56-15.12,33.78-23.57,70.97-25.35,111.57-1.8,41.08,3.35,79.23,15.44,114.48,12.09,35.25,29.84,66.02,53.23,92.35,23.39,26.3,51.73,47.28,85.02,62.87,33.28,15.56,70.46,24.28,111.54,26.08,42.07,1.84,80.36-3.56,114.89-16.15,33.42-12.22,62.22-30.02,86.6-53.08l63.69,63.69,63.68,63.68c-15.74,18.82-29.1,39.88-39.69,63.56-15.12,33.78-23.57,70.97-25.35,111.57-1.8,41.08,3.35,79.23,15.44,114.48,12.09,35.25,29.84,66.02,53.23,92.35,23.39,26.3,51.73,47.28,85.02,62.87,33.28,15.56,70.46,24.28,111.54,26.08,42.07,1.84,80.36-3.56,114.89-16.15,33.42-12.22,62.22-30.02,86.6-53.08l63.69,63.69,63.68,63.68c-15.74,18.82-29.1,39.88-39.69,63.56-15.12,33.78-23.57,70.97-25.35,111.57-1.8,41.08,3.35,79.23,15.44,114.48,12.09,35.25,29.84,66.02,53.23,92.35,23.39,26.3,51.73,47.28,85.02,62.87,33.28,15.56,70.46,24.28,111.54,26.08,42.07,1.84,80.36-3.56,114.89-16.15,33.42-12.22,62.22-30.02,86.6-53.08l63.69,63.69,63.68,63.68c-15.74,18.82-29.1,39.88-39.69,63.56-15.12,33.78-23.57,70.97-25.35,111.57-1.8,41.08,3.35,79.23,15.44,114.48,12.09,35.25,29.84,66.02,53.23,92.35,23.39,26.3,51.73,47.28,85.02,62.87,33.28,15.56,70.46,24.28,111.54,26.08,42.07,1.84,80.36-3.56,114.89-16.15,33.42-12.22,62.22-30.02,86.6-53.08l63.69,63.69,63.68,63.68c-15.74,18.82-29.1,39.88-39.69,63.56-15.12,33.78-23.57,70.97-25.35,111.57-1.8,41.08,3.35,79.23,15.44,114.48,12.09,35.25,29.84,66.02,53.23,92.35,23.39,26.3,51.73,47.28,85.02,62.87,33.28,15.56,70.46,24.28,111.54,26.08,42.07,1.84,80.36-3.56,114.89-16.15,33.42-12.22,62.22-30.02,86.6-53.08l63.69,63.69,63.68,63.68c-15.74,18.82-29.1,39.88-39.69,63.56-15.12,33.78-23.57,70.97-25.35,111.57-1.8,41.08,3.35,79.23,15.44,114.48,12.09,35.25,29.84,66.02,53.23,92.35,23.39,26.3,51.73,47.28,85.02,62.87,33.28,15.56,70.46,24.28,111.54,26.08,42.07,1.84,80.36-3.56,114.89-16.15,33.42-12.22,62.22-30.02,86.6-53.08l63.69,63.69,63.68,63.68c-15.74,18.82-29.1,39.88-39.69,63.56-15.12,33.78-23.57,70.97-25.35,111.57-1.8,41.08,3.35,79.23,15.44,114.48,12.09,35.25,29.84,66.02,53.23,92.35,23.39,26.3,51.73,47.28,85.02,62.87,33.28,15.56,70.46,24.28,111.54,26.08,42.07,1.84,80.36-3.56,114.89-16.15,33.42-12.22,62.22-30.02,86.6-53.08l63.69,63.69,35.16-35.16-66.37-66.37ZM-2449.1-945.29c-18.02,15.1-38.86,26.44-62.48,34.1-23.65,7.62-49.08,10.86-76.3,9.67-28.21-1.24-53.88-6.72-77.01-16.39-23.14-9.7-43.02-22.98-59.62-39.81-16.64-16.83-29.27-36.6-37.94-59.32-8.68-22.69-12.44-47.4-11.26-74.13,1.17-26.7,7.07-50.87,17.69-72.47,10.62-21.6,24.93-40.07,42.97-55.41,18.01-15.31,38.98-26.8,62.88-34.41,23.88-7.64,49.93-10.83,78.15-9.59,27.22,1.19,52.27,6.62,75.16,16.31,22.87,9.66,42.63,22.81,59.26,39.4,16.63,16.59,29.41,36.13,38.34,58.58,8.94,22.46,12.8,47.29,11.61,74.51-1.19,27.22-7.22,51.77-18.1,73.6-10.87,21.83-25.31,40.3-43.33,55.37ZM-1920.05-416.24c-18.02,15.1-38.86,26.44-62.48,34.1-23.65,7.62-49.08,10.86-76.3,9.67-28.22-1.24-53.88-6.72-77.01-16.39-23.14-9.7-43.02-22.98-59.62-39.81-16.64-16.83-29.27-36.6-37.94-59.32-8.68-22.69-12.43-47.4-11.26-74.13,1.17-26.7,7.07-50.87,17.69-72.47,10.62-21.6,24.93-40.07,42.97-55.41,18.01-15.31,38.98-26.8,62.88-34.41,23.88-7.64,49.93-10.83,78.15-9.59,27.22,1.19,52.27,6.62,75.16,16.31,22.87,9.66,42.63,22.81,59.26,39.4,16.63,16.59,29.41,36.13,38.34,58.58,8.94,22.46,12.8,47.29,11.61,74.51-1.19,27.22-7.22,51.77-18.1,73.6-10.87,21.83-25.31,40.3-43.33,55.36ZM-1391.01,112.8c-18.02,15.1-38.86,26.44-62.48,34.1-23.65,7.62-49.08,10.86-76.3,9.67-28.21-1.24-53.88-6.72-77.01-16.39-23.14-9.7-43.02-22.98-59.62-39.81-16.64-16.83-29.27-36.6-37.94-59.32-8.68-22.69-12.44-47.4-11.26-74.13,1.17-26.7,7.07-50.87,17.69-72.47,10.62-21.6,24.93-40.07,42.97-55.41,18.01-15.31,38.98-26.8,62.88-34.41,23.88-7.64,49.93-10.83,78.15-9.59,27.22,1.19,52.27,6.62,75.16,16.31,22.87,9.66,42.63,22.81,59.26,39.4,16.63,16.59,29.41,36.13,38.34,58.58,8.94,22.46,12.8,47.29,11.61,74.51-1.19,27.22-7.22,51.77-18.1,73.6-10.87,21.83-25.31,40.3-43.33,55.37ZM-861.96,641.85c-18.02,15.1-38.86,26.44-62.48,34.1-23.65,7.62-49.08,10.86-76.3,9.67-28.22-1.24-53.88-6.72-77.01-16.39-23.14-9.7-43.02-22.98-59.62-39.81-16.64-16.83-29.27-36.6-37.94-59.32-8.68-22.69-12.43-47.4-11.26-74.13,1.17-26.7,7.07-50.87,17.69-72.47,10.62-21.6,24.93-40.07,42.97-55.41,18.01-15.31,38.98-26.8,62.88-34.41,23.88-7.64,49.93-10.83,78.15-9.59,27.22,1.19,52.27,6.62,75.16,16.31,22.87,9.66,42.63,22.81,59.26,39.4,16.63,16.59,29.41,36.13,38.34,58.58,8.94,22.46,12.8,47.29,11.61,74.51-1.19,27.22-7.22,51.77-18.1,73.6-10.87,21.83-25.31,40.3-43.33,55.36ZM-332.91,1170.9c-18.02,15.1-38.86,26.44-62.48,34.1-23.65,7.62-49.08,10.86-76.3,9.67-28.21-1.24-53.88-6.72-77.01-16.39-23.14-9.7-43.02-22.98-59.62-39.81-16.64-16.83-29.27-36.6-37.94-59.32-8.68-22.69-12.44-47.4-11.26-74.13,1.17-26.7,7.07-50.87,17.69-72.47,10.62-21.6,24.93-40.07,42.97-55.41,18.01-15.31,38.98-26.8,62.88-34.41,23.88-7.64,49.93-10.83,78.15-9.59,27.22,1.19,52.27,6.62,75.16,16.31,22.87,9.66,42.63,22.81,59.26,39.4,16.63,16.59,29.41,36.13,38.34,58.58,8.94,22.46,12.8,47.29,11.61,74.51-1.19,27.22-7.22,51.77-18.1,73.6-10.87,21.83-25.31,40.3-43.33,55.37ZM196.14,1699.95c-18.02,15.1-38.86,26.44-62.48,34.1-23.65,7.62-49.08,10.86-76.3,9.67-28.22-1.24-53.88-6.72-77.01-16.39-23.14-9.7-43.02-22.98-59.62-39.81-16.64-16.83-29.27-36.6-37.94-59.32-8.68-22.69-12.43-47.4-11.26-74.13,1.17-26.7,7.07-50.87,17.69-72.47,10.62-21.6,24.93-40.07,42.97-55.41,18.01-15.31,38.98-26.8,62.88-34.41,23.88-7.64,49.93-10.83,78.15-9.59,27.22,1.19,52.27,6.62,75.16,16.31,22.87,9.66,42.63,22.81,59.26,39.4,16.63,16.59,29.41,36.13,38.34,58.58,8.94,22.46,12.8,47.29,11.61,74.51-1.19,27.22-7.22,51.77-18.1,73.6-10.87,21.83-25.31,40.3-43.33,55.36Zm529.05,529.05c-18.02,15.1-38.86,26.44-62.48,34.1-23.65,7.62-49.08,10.86-76.3,9.67-28.21-1.24-53.88-6.72-77.01-16.39-23.14-9.7-43.02-22.98-59.62-39.81-16.64-16.83-29.27-36.6-37.94-59.32-8.68-22.69-12.44-47.4-11.26-74.13,1.17-26.7,7.07-50.87,17.69-72.47,10.62-21.6,24.93-40.07,42.97-55.41,18.01-15.31,38.98-26.8,62.88-34.41,23.88-7.64,49.93-10.83,78.15-9.59,27.22,1.19,52.27,6.62,75.16,16.31,22.87,9.66,42.63,22.81,59.26,39.4,16.63,16.59,29.41,36.13,38.34,58.58,8.94,22.46,12.8,47.29,11.61,74.51-1.19,27.22-7.22,51.77-18.1,73.6-10.87,21.83-25.31,40.3-43.33,55.37Zm529.05,529.05c-18.02,15.1-38.86,26.44-62.48,34.1-23.65,7.62-49.08,10.86-76.3,9.67-28.22-1.24-53.88-6.72-77.01-16.39-23.14-9.7-43.02-22.98-59.62-39.81-16.64-16.83-29.27-36.6-37.94-59.32-8.68-22.69-12.43-47.4-11.26-74.13,1.17-26.7,7.07-50.87,17.69-72.47,10.62-21.6,24.93-40.07,42.97-55.41,18.01-15.31,38.98-26.8,62.88-34.41,23.88-7.64,49.93-10.83,78.15-9.59,27.22,1.19,52.27,6.62,75.16,16.31,22.87,9.66,42.63,22.81,59.26,39.4,16.63,16.59,29.41,36.13,38.34,58.58,8.94,22.46,12.8,47.29,11.61,74.51-1.19,27.22-7.22,51.77-18.1,73.6-10.87,21.83-25.31,40.3-43.33,55.36Zm529.05,529.05c-18.02,15.1-38.86,26.44-62.48,34.1-23.65,7.62-49.08,10.86-76.3,9.67-28.21-1.24-53.88-6.72-77.01-16.39-23.14-9.7-43.02-22.98-59.62-39.81-16.64-16.83-29.27-36.6-37.94-59.32-8.68-22.69-12.44-47.4-11.26-74.13,1.17-26.7,7.07-50.87,17.69-72.47,10.62-21.6,24.93-40.07,42.97-55.41,18.01-15.31,38.98-26.8,62.88-34.41,23.88-7.64,49.93-10.83,78.15-9.59,27.22,1.19,52.27,6.62,75.16,16.31,22.87,9.66,42.63,22.81,59.26,39.4,16.63,16.59,29.41,36.13,38.34,58.58,8.94,22.46,12.8,47.29,11.61,74.51-1.19,27.22-7.22,51.77-18.1,73.6-10.87,21.83-25.31,40.3-43.33,55.37Zm529.05,529.05c-18.02,15.1-38.86,26.44-62.48,34.1-23.65,7.62-49.08,10.86-76.3,9.67-28.22-1.24-53.88-6.72-77.01-16.39-23.14-9.7-43.02-22.98-59.62-39.81-16.64-16.83-29.27-36.6-37.94-59.32-8.68-22.69-12.43-47.4-11.26-74.13,1.17-26.7,7.07-50.87,17.69-72.47,10.62-21.6,24.93-40.07,42.97-55.41,18.01-15.31,38.98-26.8,62.88-34.41,23.88-7.64,49.93-10.83,78.15-9.59,27.22,1.19,52.27,6.62,75.16,16.31,22.87,9.66,42.63,22.81,59.26,39.4,16.63,16.59,29.41,36.13,38.34,58.58,8.94,22.46,12.8,47.29,11.61,74.51-1.19,27.22-7.22,51.77-18.1,73.6-10.87,21.83-25.31,40.3-43.33,55.36Z"/>
  </g>
</svg>