<?xml version="1.0" encoding="utf-8"?>
<!-- Generator: Adobe Illustrator 26.5.3, SVG Export Plug-In . SVG Version: 6.00 Build 0)  -->
<svg version="1.1" id="Layer_1" xmlns="http://www.w3.org/2000/svg" xmlns:xlink="http://www.w3.org/1999/xlink" x="0px" y="0px"
	 viewBox="0 0 216.3 567.2" style="enable-background:new 0 0 216.3 567.2;" xml:space="preserve">
<style type="text/css">
	.st0{fill:#809DE7;}
</style>
<path class="st0" d="M120.4,531.6c7.2-1.2,14.4-3.2,21.6-6.1c13-5.3,25.2-13.2,36.7-23.7c11.4-10.4,20.2-21.8,26.5-34.2
	c6.3-12.4,9.9-25.2,10.8-38.2c0.9-13.1-1-26.1-5.8-39.2c-4.7-13.1-12.5-25.5-23.3-37.3c-10.5-11.5-22.1-20.2-34.7-26
	c-10.4-4.8-21.1-7.6-31.9-8.8v-34.4V248c7.2-1.2,14.4-3.2,21.6-6.1c13-5.3,25.2-13.2,36.7-23.7c11.4-10.4,20.2-21.8,26.5-34.2
	c6.3-12.4,9.9-25.2,10.8-38.2c0.9-13.1-1-26.1-5.8-39.2c-4.7-13.1-12.5-25.5-23.3-37.3c-10.5-11.5-22.1-20.2-34.7-26
	c-10.4-4.8-21.1-7.6-31.9-8.8V0h-18.8v34.1C92.3,35,83.1,37,73.9,40.5c-13.1,5-25.3,12.7-36.7,23.1C25.7,74.2,16.9,85.8,10.6,98.5
	s-9.7,25.7-10.5,39c-0.8,13.3,1.2,26.5,5.9,39.6c4.7,13.1,12.4,25.4,22.9,36.9c10.8,11.8,22.5,20.6,35.1,26.5
	c12.2,5.7,24.7,8.6,37.4,9v34.1v34.1c-9.3,0.8-18.5,2.9-27.7,6.4c-13.1,5-25.3,12.7-36.7,23.1c-11.5,10.5-20.3,22.1-26.5,34.8
	s-9.7,25.7-10.5,39c-0.8,13.3,1.2,26.5,5.9,39.6c4.7,13.1,12.4,25.4,22.9,36.9c10.8,11.8,22.5,20.6,35.1,26.5
	c12.2,5.7,24.7,8.6,37.4,9v34.1h18.8V531.6z M106.4,213.4c-8.9-0.8-17.5-3.3-25.9-7.6c-8.4-4.3-16.1-10.2-23-17.9
	c-7.2-7.9-12.6-16.2-16.2-25c-3.6-8.8-5.4-17.7-5.3-26.7c0.1-9,2-17.7,5.7-26.1c3.8-8.4,9.4-16,16.9-22.9C66,80.5,74,75.6,82.7,72.6
	c8.6-2.9,17.4-4.1,26.4-3.3c8.9,0.7,17.6,3.3,26.1,7.6c8.4,4.4,16.3,10.5,23.5,18.4c7,7.6,12.2,15.8,15.8,24.5
	c3.5,8.7,5.3,17.5,5.3,26.4c0,8.9-1.8,17.6-5.4,26c-3.6,8.4-9.2,16.1-16.9,23.1c-7.6,7-15.8,11.9-24.6,14.9
	C124.1,213.1,115.3,214.2,106.4,213.4z M106.4,497c-8.9-0.8-17.5-3.3-25.9-7.6c-8.4-4.3-16.1-10.2-23-17.9
	c-7.2-7.9-12.6-16.2-16.2-25c-3.6-8.8-5.4-17.7-5.3-26.7c0.1-9,2-17.7,5.7-26.1c3.8-8.4,9.4-16,16.9-22.9
	c7.5-6.8,15.5-11.7,24.2-14.7c8.6-2.9,17.4-4.1,26.4-3.3c8.9,0.7,17.6,3.3,26.1,7.6c8.4,4.4,16.3,10.5,23.5,18.4
	c7,7.6,12.2,15.8,15.8,24.5c3.5,8.7,5.3,17.5,5.3,26.4c0,8.9-1.8,17.6-5.4,26c-3.6,8.4-9.2,16.1-16.9,23.1
	c-7.6,7-15.8,11.9-24.6,14.9C124.1,496.7,115.3,497.8,106.4,497z"/>
</svg>
