<?xml version="1.0" encoding="UTF-8"?>
<svg id="Layer_1" data-name="Layer 1" xmlns="http://www.w3.org/2000/svg" viewBox="0 0 343.79 160.17">
  <defs>
    <style>
      .cls-1 {
        fill: #231f20;
      }
    </style>
  </defs>
  <path class="cls-1" d="M332.66,130.24c.23-2.35,.21-4.78-.09-7.27-.57-4.51-2.01-9-4.33-13.48-2.3-4.44-5.13-8.16-8.48-11.17-3.35-3.01-7.02-5.21-11.05-6.59-4.02-1.38-8.25-1.88-12.75-1.51-4.5,.37-9.03,1.77-13.63,4.16-4.48,2.32-8.18,5.22-11.05,8.68-2.38,2.85-4.15,5.97-5.44,9.25l-21.91-5.88c.23-2.35,.21-4.78-.09-7.27-.57-4.51-2.01-9-4.33-13.48-2.3-4.44-5.13-8.16-8.48-11.17-3.34-3.05-7.05-5.25-11.04-6.62-4.02-1.38-8.25-1.88-12.75-1.51-4.5,.37-9.03,1.77-13.63,4.16-4.48,2.32-8.18,5.22-11.05,8.68-2.38,2.85-4.15,5.97-5.44,9.25l-10.77-2.89-1.58,5.88,10.67,2.87c-.53,2.98-.65,6.03-.33,9.21,.46,4.52,1.85,8.99,4.15,13.43,2.32,4.48,5.21,8.21,8.66,11.22,3.45,3.01,7.23,5.2,11.32,6.56s8.4,1.85,12.89,1.48c4.5-.37,8.99-1.75,13.47-4.07,4.6-2.39,8.34-5.31,11.25-8.76,2.81-3.34,4.77-7.01,5.96-10.95l21.35,5.73c-.53,2.98-.65,6.03-.33,9.21,.46,4.52,1.85,8.99,4.15,13.43,2.32,4.48,5.21,8.21,8.66,11.22,3.45,3.01,7.23,5.2,11.32,6.56,4.1,1.37,8.4,1.85,12.89,1.48,4.5-.37,8.99-1.75,13.47-4.07,4.6-2.39,8.34-5.31,11.25-8.76,2.81-3.34,4.77-7.01,5.96-10.95l10.67,2.87,1.58-5.88-11.14-2.99v-.03Z"/>
  <path class="cls-1" d="M169.42,16.92c-1.52-2.11-3.3-4.08-5.36-5.92-3.74-3.31-8.19-5.95-13.36-7.95C145.59,1.05,140.56,.05,135.61,0c-4.95-.05-9.57,.81-13.89,2.6-4.32,1.78-8.16,4.45-11.6,8.01-3.43,3.57-6.15,8.02-8.21,13.33-2.01,5.17-2.95,10.24-2.8,15.17,.11,4.07,.91,7.93,2.24,11.56l-22.32,11.07c-1.52-2.11-3.3-4.08-5.36-5.92-3.74-3.31-8.19-5.95-13.36-7.95-5.12-1.99-10.14-2.99-15.09-3.04-4.96-.08-9.61,.8-13.9,2.56-4.32,1.78-8.16,4.45-11.6,8.01-3.43,3.57-6.15,8.02-8.21,13.33-2.01,5.17-2.95,10.24-2.8,15.17,.11,4.07,.91,7.93,2.24,11.56L0,100.9l2.97,5.99,10.87-5.39c1.73,2.84,3.85,5.44,6.42,7.82,3.67,3.39,8.05,6.06,13.17,8.05,5.17,2.01,10.25,2.98,15.28,2.95,5.03-.03,9.73-.97,14.09-2.82,4.37-1.85,8.26-4.57,11.69-8.14,3.43-3.57,6.14-7.97,8.14-13.13,2.05-5.31,3.01-10.43,2.9-15.38-.11-4.79-1.16-9.23-3.04-13.35l21.74-10.78c1.73,2.84,3.85,5.44,6.42,7.82,3.67,3.39,8.05,6.06,13.17,8.05,5.17,2.01,10.25,2.98,15.28,2.95,5.03-.03,9.73-.97,14.09-2.82,4.37-1.85,8.26-4.57,11.69-8.14,3.43-3.57,6.14-7.97,8.14-13.13,2.05-5.31,3.01-10.43,2.9-15.38-.11-4.79-1.16-9.23-3.04-13.35l10.87-5.39-2.97-5.99-11.35,5.63-.02-.03Zm-99.2,54.76c1.15,2.96,1.71,6.1,1.67,9.46s-.71,6.75-2.07,10.16c-1.38,3.54-3.17,6.58-5.41,9.12-2.24,2.54-4.79,4.52-7.64,5.9-2.87,1.42-5.93,2.15-9.22,2.31-3.28,.12-6.59-.47-9.96-1.74-3.35-1.32-6.18-3.09-8.51-5.39-2.28-2.28-4.06-4.9-5.23-7.89-1.18-2.95-1.73-6.13-1.7-9.52,.07-3.37,.77-6.86,2.15-10.4,1.32-3.43,3.11-6.39,5.31-8.91,2.22-2.49,4.74-4.46,7.58-5.86s5.9-2.21,9.14-2.39,6.59,.39,10.04,1.74c3.43,1.32,6.29,3.16,8.64,5.49,2.32,2.35,4.06,4.98,5.19,7.91l.02,.03ZM160.61,26.85c1.15,2.96,1.71,6.1,1.67,9.46-.04,3.36-.71,6.75-2.07,10.16-1.38,3.54-3.17,6.58-5.41,9.12-2.24,2.54-4.79,4.52-7.64,5.9-2.87,1.42-5.93,2.15-9.22,2.31-3.28,.12-6.59-.47-9.96-1.74-3.35-1.32-6.18-3.09-8.51-5.39-2.28-2.28-4.06-4.9-5.23-7.89-1.18-2.95-1.73-6.13-1.7-9.52,.07-3.37,.77-6.86,2.15-10.4,1.32-3.43,3.11-6.39,5.31-8.91,2.22-2.49,4.74-4.46,7.58-5.86s5.9-2.21,9.14-2.39,6.59,.39,10.04,1.74c3.43,1.32,6.29,3.16,8.64,5.49,2.32,2.35,4.06,4.98,5.19,7.91l.02,.03Z"/>
</svg>