<svg xmlns="http://www.w3.org/2000/svg" width="36.468" height="803.06" viewBox="0 0 36.468 803.06"><g transform="translate(149.467 -60.999) rotate(90)"><path d="M69.327,35.59A16.765,16.765,0,0,1,62.9,33.863a19.254,19.254,0,0,1-5.733-4.37,18.932,18.932,0,0,1-3.8-6.042,16.918,16.918,0,0,1-1.053-4.556h-5.62v-3.1h5.665A16.459,16.459,0,0,1,53.8,10.536a18.1,18.1,0,0,1,4.287-5.719A18.383,18.383,0,0,1,64.23.983,15.613,15.613,0,0,1,70.688.036a16.211,16.211,0,0,1,6.29,1.786,19.9,19.9,0,0,1,5.634,4.366,20.242,20.242,0,0,1,3.9,6.046,17.178,17.178,0,0,1,1.009,3.558h5.857v3.1H87.761a15.5,15.5,0,0,1-1.479,6.163,18.4,18.4,0,0,1-4.357,5.783,18.145,18.145,0,0,1-6.073,3.771,16.326,16.326,0,0,1-5.6,1Q69.792,35.617,69.327,35.59ZM70.77,6.029a11.521,11.521,0,0,0-4.353.876A13.431,13.431,0,0,0,62.38,9.5a13.893,13.893,0,0,0-3.025,3.872A11.234,11.234,0,0,0,58.1,17.667a10.642,10.642,0,0,0,.549,4.342,11.246,11.246,0,0,0,2.417,3.978,11.42,11.42,0,0,0,3.768,2.775,10.573,10.573,0,0,0,4.292.944,11.313,11.313,0,0,0,4.389-.875,13.942,13.942,0,0,0,4.121-2.675,13.484,13.484,0,0,0,2.941-3.793A11.537,11.537,0,0,0,81.827,18.1a10.59,10.59,0,0,0-.531-4.355A11.271,11.271,0,0,0,78.847,9.7a11.113,11.113,0,0,0-3.8-2.775,10.675,10.675,0,0,0-4.265-.894ZM22.636,35.59a16.764,16.764,0,0,1-6.424-1.726,19.252,19.252,0,0,1-5.733-4.37,18.928,18.928,0,0,1-3.8-6.042A16.926,16.926,0,0,1,5.62,18.895H0v-3.1H5.665a16.464,16.464,0,0,1,1.444-5.256A18.1,18.1,0,0,1,11.4,4.818,18.365,18.365,0,0,1,17.538.983,15.613,15.613,0,0,1,24,.036a16.2,16.2,0,0,1,6.29,1.786,19.9,19.9,0,0,1,5.635,4.366,20.21,20.21,0,0,1,3.9,6.046,17.144,17.144,0,0,1,1.01,3.558h5.857v3.1h-5.62a15.511,15.511,0,0,1-1.48,6.163,18.393,18.393,0,0,1-4.357,5.783,18.152,18.152,0,0,1-6.072,3.771,16.335,16.335,0,0,1-5.6,1Q23.1,35.617,22.636,35.59ZM24.078,6.029a11.524,11.524,0,0,0-4.353.876,13.433,13.433,0,0,0-4.036,2.6,13.89,13.89,0,0,0-3.025,3.872,11.238,11.238,0,0,0-1.256,4.292,10.645,10.645,0,0,0,.549,4.342,11.253,11.253,0,0,0,2.417,3.978,11.422,11.422,0,0,0,3.768,2.775,10.576,10.576,0,0,0,4.292.944,11.315,11.315,0,0,0,4.389-.875,13.944,13.944,0,0,0,4.121-2.675,13.485,13.485,0,0,0,2.941-3.793A11.541,11.541,0,0,0,35.135,18.1a10.6,10.6,0,0,0-.53-4.355A11.285,11.285,0,0,0,32.155,9.7a11.118,11.118,0,0,0-3.8-2.775,10.681,10.681,0,0,0-4.266-.894Z" transform="translate(770.676 113.701)"/><path d="M69.327,35.59A16.765,16.765,0,0,1,62.9,33.863a19.254,19.254,0,0,1-5.733-4.37,18.932,18.932,0,0,1-3.8-6.042,16.918,16.918,0,0,1-1.053-4.556h-5.62v-3.1h5.665A16.459,16.459,0,0,1,53.8,10.536a18.1,18.1,0,0,1,4.287-5.719A18.383,18.383,0,0,1,64.23.983,15.613,15.613,0,0,1,70.688.036a16.211,16.211,0,0,1,6.29,1.786,19.9,19.9,0,0,1,5.634,4.366,20.242,20.242,0,0,1,3.9,6.046,17.178,17.178,0,0,1,1.009,3.558h5.857v3.1H87.761a15.5,15.5,0,0,1-1.479,6.163,18.4,18.4,0,0,1-4.357,5.783,18.145,18.145,0,0,1-6.073,3.771,16.326,16.326,0,0,1-5.6,1Q69.792,35.617,69.327,35.59ZM70.77,6.029a11.521,11.521,0,0,0-4.353.876A13.431,13.431,0,0,0,62.38,9.5a13.893,13.893,0,0,0-3.025,3.872A11.234,11.234,0,0,0,58.1,17.667a10.642,10.642,0,0,0,.549,4.342,11.246,11.246,0,0,0,2.417,3.978,11.42,11.42,0,0,0,3.768,2.775,10.573,10.573,0,0,0,4.292.944,11.313,11.313,0,0,0,4.389-.875,13.942,13.942,0,0,0,4.121-2.675,13.484,13.484,0,0,0,2.941-3.793A11.537,11.537,0,0,0,81.827,18.1a10.59,10.59,0,0,0-.531-4.355A11.271,11.271,0,0,0,78.847,9.7a11.113,11.113,0,0,0-3.8-2.775,10.675,10.675,0,0,0-4.265-.894ZM22.636,35.59a16.764,16.764,0,0,1-6.424-1.726,19.252,19.252,0,0,1-5.733-4.37,18.928,18.928,0,0,1-3.8-6.042A16.926,16.926,0,0,1,5.62,18.895H0v-3.1H5.665a16.464,16.464,0,0,1,1.444-5.256A18.1,18.1,0,0,1,11.4,4.818,18.365,18.365,0,0,1,17.538.983,15.613,15.613,0,0,1,24,.036a16.2,16.2,0,0,1,6.29,1.786,19.9,19.9,0,0,1,5.635,4.366,20.21,20.21,0,0,1,3.9,6.046,17.144,17.144,0,0,1,1.01,3.558h5.857v3.1h-5.62a15.511,15.511,0,0,1-1.48,6.163,18.393,18.393,0,0,1-4.357,5.783,18.152,18.152,0,0,1-6.072,3.771,16.335,16.335,0,0,1-5.6,1Q23.1,35.617,22.636,35.59ZM24.078,6.029a11.524,11.524,0,0,0-4.353.876,13.433,13.433,0,0,0-4.036,2.6,13.89,13.89,0,0,0-3.025,3.872,11.238,11.238,0,0,0-1.256,4.292,10.645,10.645,0,0,0,.549,4.342,11.253,11.253,0,0,0,2.417,3.978,11.422,11.422,0,0,0,3.768,2.775,10.576,10.576,0,0,0,4.292.944,11.315,11.315,0,0,0,4.389-.875,13.944,13.944,0,0,0,4.121-2.675,13.485,13.485,0,0,0,2.941-3.793A11.541,11.541,0,0,0,35.135,18.1a10.6,10.6,0,0,0-.53-4.355A11.285,11.285,0,0,0,32.155,9.7a11.118,11.118,0,0,0-3.8-2.775,10.681,10.681,0,0,0-4.266-.894Z" transform="translate(669.294 113.084)"/><path d="M69.327,35.59A16.765,16.765,0,0,1,62.9,33.863a19.254,19.254,0,0,1-5.733-4.37,18.932,18.932,0,0,1-3.8-6.042,16.918,16.918,0,0,1-1.053-4.556h-5.62v-3.1h5.665A16.459,16.459,0,0,1,53.8,10.536a18.1,18.1,0,0,1,4.287-5.719A18.383,18.383,0,0,1,64.23.983,15.613,15.613,0,0,1,70.688.036a16.211,16.211,0,0,1,6.29,1.786,19.9,19.9,0,0,1,5.634,4.366,20.242,20.242,0,0,1,3.9,6.046,17.178,17.178,0,0,1,1.009,3.558h5.857v3.1H87.761a15.5,15.5,0,0,1-1.479,6.163,18.4,18.4,0,0,1-4.357,5.783,18.145,18.145,0,0,1-6.073,3.771,16.326,16.326,0,0,1-5.6,1Q69.792,35.617,69.327,35.59ZM70.77,6.029a11.521,11.521,0,0,0-4.353.876A13.431,13.431,0,0,0,62.38,9.5a13.893,13.893,0,0,0-3.025,3.872A11.234,11.234,0,0,0,58.1,17.667a10.642,10.642,0,0,0,.549,4.342,11.246,11.246,0,0,0,2.417,3.978,11.42,11.42,0,0,0,3.768,2.775,10.573,10.573,0,0,0,4.292.944,11.313,11.313,0,0,0,4.389-.875,13.942,13.942,0,0,0,4.121-2.675,13.484,13.484,0,0,0,2.941-3.793A11.537,11.537,0,0,0,81.827,18.1a10.59,10.59,0,0,0-.531-4.355A11.271,11.271,0,0,0,78.847,9.7a11.113,11.113,0,0,0-3.8-2.775,10.675,10.675,0,0,0-4.265-.894ZM22.636,35.59a16.764,16.764,0,0,1-6.424-1.726,19.252,19.252,0,0,1-5.733-4.37,18.928,18.928,0,0,1-3.8-6.042A16.926,16.926,0,0,1,5.62,18.895H0v-3.1H5.665a16.464,16.464,0,0,1,1.444-5.256A18.1,18.1,0,0,1,11.4,4.818,18.365,18.365,0,0,1,17.538.983,15.613,15.613,0,0,1,24,.036a16.2,16.2,0,0,1,6.29,1.786,19.9,19.9,0,0,1,5.635,4.366,20.21,20.21,0,0,1,3.9,6.046,17.144,17.144,0,0,1,1.01,3.558h5.857v3.1h-5.62a15.511,15.511,0,0,1-1.48,6.163,18.393,18.393,0,0,1-4.357,5.783,18.152,18.152,0,0,1-6.072,3.771,16.335,16.335,0,0,1-5.6,1Q23.1,35.617,22.636,35.59ZM24.078,6.029a11.524,11.524,0,0,0-4.353.876,13.433,13.433,0,0,0-4.036,2.6,13.89,13.89,0,0,0-3.025,3.872,11.238,11.238,0,0,0-1.256,4.292,10.645,10.645,0,0,0,.549,4.342,11.253,11.253,0,0,0,2.417,3.978,11.422,11.422,0,0,0,3.768,2.775,10.576,10.576,0,0,0,4.292.944,11.315,11.315,0,0,0,4.389-.875,13.944,13.944,0,0,0,4.121-2.675,13.485,13.485,0,0,0,2.941-3.793A11.541,11.541,0,0,0,35.135,18.1a10.6,10.6,0,0,0-.53-4.355A11.285,11.285,0,0,0,32.155,9.7a11.118,11.118,0,0,0-3.8-2.775,10.681,10.681,0,0,0-4.266-.894Z" transform="translate(567.911 113.467)"/><path d="M69.327,35.59A16.765,16.765,0,0,1,62.9,33.863a19.254,19.254,0,0,1-5.733-4.37,18.932,18.932,0,0,1-3.8-6.042,16.918,16.918,0,0,1-1.053-4.556h-5.62v-3.1h5.665A16.459,16.459,0,0,1,53.8,10.536a18.1,18.1,0,0,1,4.287-5.719A18.383,18.383,0,0,1,64.23.983,15.613,15.613,0,0,1,70.688.036a16.211,16.211,0,0,1,6.29,1.786,19.9,19.9,0,0,1,5.634,4.366,20.242,20.242,0,0,1,3.9,6.046,17.178,17.178,0,0,1,1.009,3.558h5.857v3.1H87.761a15.5,15.5,0,0,1-1.479,6.163,18.4,18.4,0,0,1-4.357,5.783,18.145,18.145,0,0,1-6.073,3.771,16.326,16.326,0,0,1-5.6,1Q69.792,35.617,69.327,35.59ZM70.77,6.029a11.521,11.521,0,0,0-4.353.876A13.431,13.431,0,0,0,62.38,9.5a13.893,13.893,0,0,0-3.025,3.872A11.234,11.234,0,0,0,58.1,17.667a10.642,10.642,0,0,0,.549,4.342,11.246,11.246,0,0,0,2.417,3.978,11.42,11.42,0,0,0,3.768,2.775,10.573,10.573,0,0,0,4.292.944,11.313,11.313,0,0,0,4.389-.875,13.942,13.942,0,0,0,4.121-2.675,13.484,13.484,0,0,0,2.941-3.793A11.537,11.537,0,0,0,81.827,18.1a10.59,10.59,0,0,0-.531-4.355A11.271,11.271,0,0,0,78.847,9.7a11.113,11.113,0,0,0-3.8-2.775,10.675,10.675,0,0,0-4.265-.894ZM22.636,35.59a16.764,16.764,0,0,1-6.424-1.726,19.252,19.252,0,0,1-5.733-4.37,18.928,18.928,0,0,1-3.8-6.042A16.926,16.926,0,0,1,5.62,18.895H0v-3.1H5.665a16.464,16.464,0,0,1,1.444-5.256A18.1,18.1,0,0,1,11.4,4.818,18.365,18.365,0,0,1,17.538.983,15.613,15.613,0,0,1,24,.036a16.2,16.2,0,0,1,6.29,1.786,19.9,19.9,0,0,1,5.635,4.366,20.21,20.21,0,0,1,3.9,6.046,17.144,17.144,0,0,1,1.01,3.558h5.857v3.1h-5.62a15.511,15.511,0,0,1-1.48,6.163,18.393,18.393,0,0,1-4.357,5.783,18.152,18.152,0,0,1-6.072,3.771,16.335,16.335,0,0,1-5.6,1Q23.1,35.617,22.636,35.59ZM24.078,6.029a11.524,11.524,0,0,0-4.353.876,13.433,13.433,0,0,0-4.036,2.6,13.89,13.89,0,0,0-3.025,3.872,11.238,11.238,0,0,0-1.256,4.292,10.645,10.645,0,0,0,.549,4.342,11.253,11.253,0,0,0,2.417,3.978,11.422,11.422,0,0,0,3.768,2.775,10.576,10.576,0,0,0,4.292.944,11.315,11.315,0,0,0,4.389-.875,13.944,13.944,0,0,0,4.121-2.675,13.485,13.485,0,0,0,2.941-3.793A11.541,11.541,0,0,0,35.135,18.1a10.6,10.6,0,0,0-.53-4.355A11.285,11.285,0,0,0,32.155,9.7a11.118,11.118,0,0,0-3.8-2.775,10.681,10.681,0,0,0-4.266-.894Z" transform="translate(466.529 113.85)"/><path d="M69.327,35.59A16.765,16.765,0,0,1,62.9,33.863a19.254,19.254,0,0,1-5.733-4.37,18.932,18.932,0,0,1-3.8-6.042,16.918,16.918,0,0,1-1.053-4.556h-5.62v-3.1h5.665A16.459,16.459,0,0,1,53.8,10.536a18.1,18.1,0,0,1,4.287-5.719A18.383,18.383,0,0,1,64.23.983,15.613,15.613,0,0,1,70.688.036a16.211,16.211,0,0,1,6.29,1.786,19.9,19.9,0,0,1,5.634,4.366,20.242,20.242,0,0,1,3.9,6.046,17.178,17.178,0,0,1,1.009,3.558h5.857v3.1H87.761a15.5,15.5,0,0,1-1.479,6.163,18.4,18.4,0,0,1-4.357,5.783,18.145,18.145,0,0,1-6.073,3.771,16.326,16.326,0,0,1-5.6,1Q69.792,35.617,69.327,35.59ZM70.77,6.029a11.521,11.521,0,0,0-4.353.876A13.431,13.431,0,0,0,62.38,9.5a13.893,13.893,0,0,0-3.025,3.872A11.234,11.234,0,0,0,58.1,17.667a10.642,10.642,0,0,0,.549,4.342,11.246,11.246,0,0,0,2.417,3.978,11.42,11.42,0,0,0,3.768,2.775,10.573,10.573,0,0,0,4.292.944,11.313,11.313,0,0,0,4.389-.875,13.942,13.942,0,0,0,4.121-2.675,13.484,13.484,0,0,0,2.941-3.793A11.537,11.537,0,0,0,81.827,18.1a10.59,10.59,0,0,0-.531-4.355A11.271,11.271,0,0,0,78.847,9.7a11.113,11.113,0,0,0-3.8-2.775,10.675,10.675,0,0,0-4.265-.894ZM22.636,35.59a16.764,16.764,0,0,1-6.424-1.726,19.252,19.252,0,0,1-5.733-4.37,18.928,18.928,0,0,1-3.8-6.042A16.926,16.926,0,0,1,5.62,18.895H0v-3.1H5.665a16.464,16.464,0,0,1,1.444-5.256A18.1,18.1,0,0,1,11.4,4.818,18.365,18.365,0,0,1,17.538.983,15.613,15.613,0,0,1,24,.036a16.2,16.2,0,0,1,6.29,1.786,19.9,19.9,0,0,1,5.635,4.366,20.21,20.21,0,0,1,3.9,6.046,17.144,17.144,0,0,1,1.01,3.558h5.857v3.1h-5.62a15.511,15.511,0,0,1-1.48,6.163,18.393,18.393,0,0,1-4.357,5.783,18.152,18.152,0,0,1-6.072,3.771,16.335,16.335,0,0,1-5.6,1Q23.1,35.617,22.636,35.59ZM24.078,6.029a11.524,11.524,0,0,0-4.353.876,13.433,13.433,0,0,0-4.036,2.6,13.89,13.89,0,0,0-3.025,3.872,11.238,11.238,0,0,0-1.256,4.292,10.645,10.645,0,0,0,.549,4.342,11.253,11.253,0,0,0,2.417,3.978,11.422,11.422,0,0,0,3.768,2.775,10.576,10.576,0,0,0,4.292.944,11.315,11.315,0,0,0,4.389-.875,13.944,13.944,0,0,0,4.121-2.675,13.485,13.485,0,0,0,2.941-3.793A11.541,11.541,0,0,0,35.135,18.1a10.6,10.6,0,0,0-.53-4.355A11.285,11.285,0,0,0,32.155,9.7a11.118,11.118,0,0,0-3.8-2.775,10.681,10.681,0,0,0-4.266-.894Z" transform="translate(365.146 113.233)"/><path d="M69.327,35.59A16.765,16.765,0,0,1,62.9,33.863a19.254,19.254,0,0,1-5.733-4.37,18.932,18.932,0,0,1-3.8-6.042,16.918,16.918,0,0,1-1.053-4.556h-5.62v-3.1h5.665A16.459,16.459,0,0,1,53.8,10.536a18.1,18.1,0,0,1,4.287-5.719A18.383,18.383,0,0,1,64.23.983,15.613,15.613,0,0,1,70.688.036a16.211,16.211,0,0,1,6.29,1.786,19.9,19.9,0,0,1,5.634,4.366,20.242,20.242,0,0,1,3.9,6.046,17.178,17.178,0,0,1,1.009,3.558h5.857v3.1H87.761a15.5,15.5,0,0,1-1.479,6.163,18.4,18.4,0,0,1-4.357,5.783,18.145,18.145,0,0,1-6.073,3.771,16.326,16.326,0,0,1-5.6,1Q69.792,35.617,69.327,35.59ZM70.77,6.029a11.521,11.521,0,0,0-4.353.876A13.431,13.431,0,0,0,62.38,9.5a13.893,13.893,0,0,0-3.025,3.872A11.234,11.234,0,0,0,58.1,17.667a10.642,10.642,0,0,0,.549,4.342,11.246,11.246,0,0,0,2.417,3.978,11.42,11.42,0,0,0,3.768,2.775,10.573,10.573,0,0,0,4.292.944,11.313,11.313,0,0,0,4.389-.875,13.942,13.942,0,0,0,4.121-2.675,13.484,13.484,0,0,0,2.941-3.793A11.537,11.537,0,0,0,81.827,18.1a10.59,10.59,0,0,0-.531-4.355A11.271,11.271,0,0,0,78.847,9.7a11.113,11.113,0,0,0-3.8-2.775,10.675,10.675,0,0,0-4.265-.894ZM22.636,35.59a16.764,16.764,0,0,1-6.424-1.726,19.252,19.252,0,0,1-5.733-4.37,18.928,18.928,0,0,1-3.8-6.042A16.926,16.926,0,0,1,5.62,18.895H0v-3.1H5.665a16.464,16.464,0,0,1,1.444-5.256A18.1,18.1,0,0,1,11.4,4.818,18.365,18.365,0,0,1,17.538.983,15.613,15.613,0,0,1,24,.036a16.2,16.2,0,0,1,6.29,1.786,19.9,19.9,0,0,1,5.635,4.366,20.21,20.21,0,0,1,3.9,6.046,17.144,17.144,0,0,1,1.01,3.558h5.857v3.1h-5.62a15.511,15.511,0,0,1-1.48,6.163,18.393,18.393,0,0,1-4.357,5.783,18.152,18.152,0,0,1-6.072,3.771,16.335,16.335,0,0,1-5.6,1Q23.1,35.617,22.636,35.59ZM24.078,6.029a11.524,11.524,0,0,0-4.353.876,13.433,13.433,0,0,0-4.036,2.6,13.89,13.89,0,0,0-3.025,3.872,11.238,11.238,0,0,0-1.256,4.292,10.645,10.645,0,0,0,.549,4.342,11.253,11.253,0,0,0,2.417,3.978,11.422,11.422,0,0,0,3.768,2.775,10.576,10.576,0,0,0,4.292.944,11.315,11.315,0,0,0,4.389-.875,13.944,13.944,0,0,0,4.121-2.675,13.485,13.485,0,0,0,2.941-3.793A11.541,11.541,0,0,0,35.135,18.1a10.6,10.6,0,0,0-.53-4.355A11.285,11.285,0,0,0,32.155,9.7a11.118,11.118,0,0,0-3.8-2.775,10.681,10.681,0,0,0-4.266-.894Z" transform="translate(263.764 113.616)"/><path d="M69.327,35.59A16.765,16.765,0,0,1,62.9,33.863a19.254,19.254,0,0,1-5.733-4.37,18.932,18.932,0,0,1-3.8-6.042,16.918,16.918,0,0,1-1.053-4.556h-5.62v-3.1h5.665A16.459,16.459,0,0,1,53.8,10.536a18.1,18.1,0,0,1,4.287-5.719A18.383,18.383,0,0,1,64.23.983,15.613,15.613,0,0,1,70.688.036a16.211,16.211,0,0,1,6.29,1.786,19.9,19.9,0,0,1,5.634,4.366,20.242,20.242,0,0,1,3.9,6.046,17.178,17.178,0,0,1,1.009,3.558h5.857v3.1H87.761a15.5,15.5,0,0,1-1.479,6.163,18.4,18.4,0,0,1-4.357,5.783,18.145,18.145,0,0,1-6.073,3.771,16.326,16.326,0,0,1-5.6,1Q69.792,35.617,69.327,35.59ZM70.77,6.029a11.521,11.521,0,0,0-4.353.876A13.431,13.431,0,0,0,62.38,9.5a13.893,13.893,0,0,0-3.025,3.872A11.234,11.234,0,0,0,58.1,17.667a10.642,10.642,0,0,0,.549,4.342,11.246,11.246,0,0,0,2.417,3.978,11.42,11.42,0,0,0,3.768,2.775,10.573,10.573,0,0,0,4.292.944,11.313,11.313,0,0,0,4.389-.875,13.942,13.942,0,0,0,4.121-2.675,13.484,13.484,0,0,0,2.941-3.793A11.537,11.537,0,0,0,81.827,18.1a10.59,10.59,0,0,0-.531-4.355A11.271,11.271,0,0,0,78.847,9.7a11.113,11.113,0,0,0-3.8-2.775,10.675,10.675,0,0,0-4.265-.894ZM22.636,35.59a16.764,16.764,0,0,1-6.424-1.726,19.252,19.252,0,0,1-5.733-4.37,18.928,18.928,0,0,1-3.8-6.042A16.926,16.926,0,0,1,5.62,18.895H0v-3.1H5.665a16.464,16.464,0,0,1,1.444-5.256A18.1,18.1,0,0,1,11.4,4.818,18.365,18.365,0,0,1,17.538.983,15.613,15.613,0,0,1,24,.036a16.2,16.2,0,0,1,6.29,1.786,19.9,19.9,0,0,1,5.635,4.366,20.21,20.21,0,0,1,3.9,6.046,17.144,17.144,0,0,1,1.01,3.558h5.857v3.1h-5.62a15.511,15.511,0,0,1-1.48,6.163,18.393,18.393,0,0,1-4.357,5.783,18.152,18.152,0,0,1-6.072,3.771,16.335,16.335,0,0,1-5.6,1Q23.1,35.617,22.636,35.59ZM24.078,6.029a11.524,11.524,0,0,0-4.353.876,13.433,13.433,0,0,0-4.036,2.6,13.89,13.89,0,0,0-3.025,3.872,11.238,11.238,0,0,0-1.256,4.292,10.645,10.645,0,0,0,.549,4.342,11.253,11.253,0,0,0,2.417,3.978,11.422,11.422,0,0,0,3.768,2.775,10.576,10.576,0,0,0,4.292.944,11.315,11.315,0,0,0,4.389-.875,13.944,13.944,0,0,0,4.121-2.675,13.485,13.485,0,0,0,2.941-3.793A11.541,11.541,0,0,0,35.135,18.1a10.6,10.6,0,0,0-.53-4.355A11.285,11.285,0,0,0,32.155,9.7a11.118,11.118,0,0,0-3.8-2.775,10.681,10.681,0,0,0-4.266-.894Z" transform="translate(162.381 112.999)"/><path d="M69.327,35.59A16.765,16.765,0,0,1,62.9,33.863a19.254,19.254,0,0,1-5.733-4.37,18.932,18.932,0,0,1-3.8-6.042,16.918,16.918,0,0,1-1.053-4.556h-5.62v-3.1h5.665A16.459,16.459,0,0,1,53.8,10.536a18.1,18.1,0,0,1,4.287-5.719A18.383,18.383,0,0,1,64.23.983,15.613,15.613,0,0,1,70.688.036a16.211,16.211,0,0,1,6.29,1.786,19.9,19.9,0,0,1,5.634,4.366,20.242,20.242,0,0,1,3.9,6.046,17.178,17.178,0,0,1,1.009,3.558h5.857v3.1H87.761a15.5,15.5,0,0,1-1.479,6.163,18.4,18.4,0,0,1-4.357,5.783,18.145,18.145,0,0,1-6.073,3.771,16.326,16.326,0,0,1-5.6,1Q69.792,35.617,69.327,35.59ZM70.77,6.029a11.521,11.521,0,0,0-4.353.876A13.431,13.431,0,0,0,62.38,9.5a13.893,13.893,0,0,0-3.025,3.872A11.234,11.234,0,0,0,58.1,17.667a10.642,10.642,0,0,0,.549,4.342,11.246,11.246,0,0,0,2.417,3.978,11.42,11.42,0,0,0,3.768,2.775,10.573,10.573,0,0,0,4.292.944,11.313,11.313,0,0,0,4.389-.875,13.942,13.942,0,0,0,4.121-2.675,13.484,13.484,0,0,0,2.941-3.793A11.537,11.537,0,0,0,81.827,18.1a10.59,10.59,0,0,0-.531-4.355A11.271,11.271,0,0,0,78.847,9.7a11.113,11.113,0,0,0-3.8-2.775,10.675,10.675,0,0,0-4.265-.894ZM22.636,35.59a16.764,16.764,0,0,1-6.424-1.726,19.252,19.252,0,0,1-5.733-4.37,18.928,18.928,0,0,1-3.8-6.042A16.926,16.926,0,0,1,5.62,18.895H0v-3.1H5.665a16.464,16.464,0,0,1,1.444-5.256A18.1,18.1,0,0,1,11.4,4.818,18.365,18.365,0,0,1,17.538.983,15.613,15.613,0,0,1,24,.036a16.2,16.2,0,0,1,6.29,1.786,19.9,19.9,0,0,1,5.635,4.366,20.21,20.21,0,0,1,3.9,6.046,17.144,17.144,0,0,1,1.01,3.558h5.857v3.1h-5.62a15.511,15.511,0,0,1-1.48,6.163,18.393,18.393,0,0,1-4.357,5.783,18.152,18.152,0,0,1-6.072,3.771,16.335,16.335,0,0,1-5.6,1Q23.1,35.617,22.636,35.59ZM24.078,6.029a11.524,11.524,0,0,0-4.353.876,13.433,13.433,0,0,0-4.036,2.6,13.89,13.89,0,0,0-3.025,3.872,11.238,11.238,0,0,0-1.256,4.292,10.645,10.645,0,0,0,.549,4.342,11.253,11.253,0,0,0,2.417,3.978,11.422,11.422,0,0,0,3.768,2.775,10.576,10.576,0,0,0,4.292.944,11.315,11.315,0,0,0,4.389-.875,13.944,13.944,0,0,0,4.121-2.675,13.485,13.485,0,0,0,2.941-3.793A11.541,11.541,0,0,0,35.135,18.1a10.6,10.6,0,0,0-.53-4.355A11.285,11.285,0,0,0,32.155,9.7a11.118,11.118,0,0,0-3.8-2.775,10.681,10.681,0,0,0-4.266-.894Z" transform="translate(60.999 113.382)"/></g></svg>