<?xml version="1.0" encoding="UTF-8"?>
<svg xmlns="http://www.w3.org/2000/svg" version="1.1" viewBox="0 0 347.8 226.8">
  <defs>
    <style>
      .cls-1 {
        fill: #43b02a;
      }
    </style>
  </defs>
  <!-- Generator: Adobe Illustrator 28.6.0, SVG Export Plug-In . SVG Version: 1.2.0 Build 709)  -->
  <g>
    <g id="Layer_1">
      <path class="cls-1" d="M115.4,115.2c0-34,27.6-61.5,61.5-61.5s61.5,27.6,61.5,61.5-27.6,61.5-61.5,61.5-61.5-27.6-61.5-61.5"/>
      <polygon points="61.3 128.4 33.2 110.9 36.5 105.7 59.4 119.9 67.4 107 72.6 110.3 61.3 128.4"/>
      <rect x="64" y="76.2" width="6.1" height="33.1" transform="translate(-46.1 76) rotate(-45.7)"/>
      <polygon points="86.9 96.4 68 69.2 73.1 65.7 88.4 87.9 100.9 79.3 104.4 84.3 86.9 96.4"/>
      <polygon points="109.3 81.9 96.7 51.3 102.4 49 112.7 73.9 126.7 68.1 129 73.8 109.3 81.9"/>
      <polygon points="133.5 72.5 126.9 40.1 149.3 35.5 150.5 41.4 134.1 44.7 135.6 52.4 148.1 49.9 149.1 54.9 136.6 57.4 138.3 65.4 154.7 62.1 155.9 68 133.5 72.5"/>
      <path d="M159.4,61.4l5.1-4.7c1.3,1.7,2.6,3,4,3.8,1.4.8,3.2,1.2,5.3,1.2,1.6,0,2.9-.4,3.7-1.2.9-.8,1.3-1.8,1.3-3,0-.8-.2-1.5-.7-2-.4-.5-1-.9-1.7-1.2-.7-.3-1.5-.6-2.5-.7-.9-.2-1.9-.4-2.9-.5-1.3-.2-2.6-.5-3.9-.9-1.3-.3-2.4-.8-3.4-1.5-1-.7-1.8-1.5-2.4-2.6-.6-1.1-.9-2.5-.9-4.2,0-1.3.2-2.6.7-3.8.5-1.2,1.2-2.3,2.1-3.2.9-.9,2.1-1.7,3.6-2.2,1.4-.5,3.1-.8,4.9-.9,2.7,0,5.1.4,7.3,1.4,2.1,1,4.1,2.6,5.8,5l-5.3,4.5c-1-1.5-2.2-2.7-3.4-3.5-1.3-.8-2.9-1.2-4.9-1.2-1.7,0-2.9.4-3.8,1.2-.8.8-1.2,1.7-1.2,2.8,0,1.6.8,2.7,2.3,3.2,1.5.5,3.4.9,5.6,1.3,1.2.2,2.5.5,3.7.8,1.2.3,2.4.8,3.4,1.5,1,.7,1.8,1.5,2.4,2.6.6,1.1.9,2.5,1,4.2,0,3.1-.9,5.5-3,7.4-2,1.9-4.7,2.9-8.2,2.9-3.2,0-6-.5-8.3-1.7-2.3-1.1-4.2-2.8-5.6-4.8"/>
      <polygon points="192.4 40.5 193.4 34.8 218.2 39 217.2 44.8 207.8 43.2 203.2 70 197.2 69 201.8 42.1 192.4 40.5"/>
      <g>
        <path d="M236,51l-6.2-2.3-3.7,10,6.1,2.2c2,.7,3.7.8,5,.2,1.4-.6,2.3-1.6,2.9-3.2.6-1.5.5-2.9-.1-4.1-.6-1.2-2-2.2-4-2.9M228.6,64.7l-4.1-1.5-4.1,11.1-5.8-2.1,11.5-31.1,13.3,4.9c3.3,1.2,5.5,3,6.7,5.3,1.1,2.3,1.2,4.8.2,7.5-.8,2.1-2.1,3.7-4,4.8-1.9,1.1-4.1,1.5-6.5,1.1.5.3,1,.6,1.4.9.4.3.8.7,1.1,1.1.6.8,1,1.9,1.2,3.2.1,1.3.1,3,0,5l-.5,6.1-6.1-2.3.6-5.9c.1-1.3.2-2.3.1-3.2,0-.9-.2-1.6-.6-2.2-.3-.6-.8-1.1-1.5-1.6-.7-.4-1.6-.9-2.8-1.3"/>
        <path d="M255.9,72.2c-.6.9-1.2,1.8-1.6,2.7s-.7,1.8-.9,2.6l19.4-4c-.1-1-.5-2-1.1-2.9-.6-.9-1.4-1.8-2.5-2.5-1.1-.8-2.3-1.2-3.5-1.4-1.2-.2-2.4,0-3.5.3-1.2.4-2.3,1-3.4,1.9-1.1.9-2.1,2-3,3.3M256.9,86c2.4,1.6,4.7,2,7.1,1.2,2.3-.8,4.4-2.6,6.3-5.2.6-.8,1-1.6,1.5-2.4.4-.8.7-1.6.9-2.4l-19.2,4c.2.9.6,1.8,1.1,2.6.6.8,1.3,1.6,2.3,2.2M241.9,83.3l-.4-4.4,5.6-1c.2-1.5.6-3.1,1.3-4.6.6-1.6,1.5-3.1,2.5-4.6,1.3-1.9,2.8-3.5,4.5-4.8,1.7-1.3,3.5-2.3,5.5-2.8,1.9-.6,3.9-.7,5.9-.4,2,.3,4,1.1,5.9,2.4,1.8,1.2,3.2,2.7,4.3,4.2,1,1.6,1.7,3.2,2,5l5.6-1,.4,4.4-6,1c-.2,1.5-.6,3-1.2,4.5-.6,1.5-1.4,3-2.4,4.4-1.3,1.9-2.8,3.5-4.5,4.9-1.7,1.3-3.5,2.3-5.4,2.9-1.9.6-3.9.7-5.9.3-2.1-.3-4.1-1.2-6.1-2.6-1.7-1.2-3.1-2.5-4.1-4-1-1.5-1.7-3-2-4.7l-5.4.9Z"/>
      </g>
      <polygon points="309.8 101.2 314.6 107.5 288 127.2 284.5 122.5 302.9 108.9 306.4 106.6 302.5 108.3 279.7 116 276.9 112.2 290.9 92.6 293.4 89.6 290.4 92.1 272.1 105.7 268.6 101 295.2 81.3 300 87.9 284.5 109.2 283.6 110.2 284.8 109.7 309.8 101.2"/>
      <g>
        <path d="M88.8,166.8c2.6,1.6,5.1,1.9,7.4.9,2.3-.9,4.3-2.8,6-5.6,1.7-2.8,2.4-5.4,2.1-7.9-.3-2.5-1.7-4.6-4.2-6.1-1.2-.7-2.5-1.2-3.7-1.3-1.2-.1-2.4,0-3.6.5-1.2.4-2.3,1.1-3.3,2.1-1,.9-2,2.1-2.8,3.4s-1.4,2.7-1.8,4c-.4,1.3-.5,2.6-.4,3.8.1,1.2.5,2.3,1.2,3.4.7,1,1.7,2,3,2.8M85.6,172c-2.3-1.4-4-2.9-5.2-4.7-1.2-1.8-2-3.6-2.3-5.6-.3-2-.2-4,.3-6.1.5-2.1,1.4-4.2,2.6-6.2,1.2-2,2.6-3.7,4.3-5.1,1.7-1.4,3.5-2.4,5.4-3.1,1.9-.6,4-.8,6.1-.6,2.1.2,4.3,1,6.4,2.3,2.2,1.3,4,2.9,5.2,4.7,1.2,1.8,2,3.7,2.3,5.7.3,2,.2,4-.3,6.2-.5,2.1-1.4,4.2-2.6,6.2-1.2,2-2.6,3.7-4.3,5.1-1.6,1.4-3.4,2.5-5.4,3.1-1.9.6-4,.8-6.1.6-2.2-.3-4.3-1.1-6.5-2.4"/>
        <path d="M133,161.9l-6.9-1.8-3,11.8,6.6,1.7c2.2.6,4,.5,5.5,0,1.5-.6,2.4-2,3-4,.5-2.1.3-3.8-.7-5-1-1.2-2.5-2.1-4.5-2.6M129.1,178.8l-7.3-1.9-2.4,9.4-6.3-1.6,8.3-32,13.1,3.4c4.2,1.1,7.2,2.9,8.8,5.5,1.6,2.6,2,5.5,1.2,8.9-.5,1.8-1.2,3.3-2.1,4.6-1,1.3-2.1,2.3-3.5,3-1.3.7-2.9,1.1-4.5,1.3-1.7.1-3.4,0-5.3-.5"/>
      </g>
      <polygon points="151.6 165.7 151.9 159.8 178.4 161.1 178.1 166.9 168.1 166.5 166.8 193.7 160.3 193.4 161.6 166.1 151.6 165.7"/>
      <rect x="187.5" y="159.8" width="6.5" height="33.1" transform="translate(-16 19.1) rotate(-5.5)"/>
      <polygon points="209.9 190.8 201.4 158.8 207.6 157.1 212.3 174.6 221.1 153.6 228.5 151.6 221 168.6 237.4 183.5 230.1 185.4 217 173.1 213.8 180.3 216.1 189.1 209.9 190.8"/>
      <polygon points="249.5 178.3 232.4 149.9 238 146.6 247.3 162.1 249.9 139.4 256.4 135.5 254 153.9 273.9 163.6 267.4 167.5 251.4 159.2 250.3 167.1 255 174.9 249.5 178.3"/>
    </g>
  </g>
</svg>