<?xml version="1.0" encoding="UTF-8"?>
<svg id="Layer_1" data-name="Layer 1" xmlns="http://www.w3.org/2000/svg" viewBox="0 0 104.86 40">
  <defs>
    <style>
      .cls-1 {
        fill: #d1ddff;
      }
    </style>
  </defs>
  <path class="cls-1" d="M98.28,17.74c-.22-1.33-.59-2.66-1.13-3.99-.98-2.4-2.44-4.66-4.38-6.79-1.92-2.11-4.03-3.74-6.32-4.9-2.29-1.17-4.64-1.83-7.06-2-2.42-.17-4.83,.18-7.25,1.05-2.42,.87-4.72,2.31-6.9,4.31-2.13,1.94-3.74,4.09-4.81,6.42-.89,1.92-1.41,3.9-1.63,5.9h-12.95c-.22-1.33-.59-2.66-1.13-3.99-.98-2.4-2.44-4.66-4.38-6.79-1.92-2.11-4.03-3.74-6.32-4.9C31.72,.87,29.35,.21,26.95,.04c-2.42-.17-4.83,.18-7.25,1.05-2.42,.87-4.72,2.31-6.9,4.31-2.13,1.94-3.74,4.09-4.81,6.42-.89,1.92-1.41,3.9-1.63,5.9H0v3.48H6.31c.15,1.72,.54,3.42,1.18,5.12,.92,2.42,2.35,4.68,4.27,6.79,1.94,2.13,4.09,3.75,6.44,4.9,2.35,1.15,4.75,1.79,7.21,1.94s4.9-.22,7.32-1.09c2.42-.87,4.7-2.29,6.82-4.24,2.18-2,3.81-4.16,4.9-6.49,1.05-2.26,1.59-4.57,1.66-6.92h12.61c.15,1.72,.54,3.42,1.18,5.12,.92,2.42,2.35,4.68,4.27,6.79,1.94,2.13,4.09,3.75,6.44,4.9,2.35,1.15,4.75,1.79,7.21,1.94s4.9-.22,7.32-1.09c2.42-.87,4.7-2.29,6.82-4.24,2.18-2,3.81-4.16,4.9-6.49,1.05-2.26,1.59-4.57,1.66-6.92h6.31v-3.48h-6.58v-.02Zm-58.83,2.59c-.15,1.65-.61,3.24-1.41,4.79s-1.89,2.98-3.31,4.25c-1.46,1.33-3,2.33-4.62,3-1.63,.67-3.27,1-4.92,.98-1.66,0-3.25-.37-4.83-1.05-1.55-.7-2.96-1.74-4.24-3.11-1.26-1.39-2.16-2.87-2.72-4.48-.54-1.59-.76-3.22-.61-4.88,.13-1.65,.61-3.25,1.41-4.83,.81-1.55,1.94-3.01,3.4-4.35,1.41-1.29,2.92-2.26,4.53-2.92,1.61-.65,3.24-.98,4.88-.98s3.25,.33,4.81,1,2.98,1.7,4.27,3.13c1.29,1.41,2.2,2.92,2.76,4.55,.54,1.63,.74,3.25,.59,4.88v.02Zm52.43,0c-.15,1.65-.61,3.24-1.41,4.79-.8,1.55-1.89,2.98-3.31,4.25-1.46,1.33-3,2.33-4.62,3s-3.27,1-4.92,.98c-1.66,0-3.25-.37-4.83-1.05-1.55-.7-2.96-1.74-4.24-3.11-1.26-1.39-2.16-2.87-2.72-4.48-.54-1.59-.76-3.22-.61-4.88,.13-1.65,.61-3.25,1.41-4.83,.81-1.55,1.94-3.01,3.4-4.35,1.41-1.29,2.92-2.26,4.53-2.92,1.61-.65,3.24-.98,4.88-.98s3.25,.33,4.81,1,2.98,1.7,4.27,3.13c1.29,1.41,2.2,2.92,2.76,4.55,.54,1.63,.74,3.25,.59,4.88v.02Z"/>
</svg>