<?xml version="1.0" encoding="UTF-8"?>
<svg id="Layer_1" data-name="Layer 1" xmlns="http://www.w3.org/2000/svg" viewBox="0 0 56.69 21.62">
  <path d="M53.14,9.59c-.12-.72-.32-1.44-.61-2.16-.53-1.3-1.32-2.52-2.37-3.67-1.04-1.14-2.18-2.02-3.42-2.65-1.24-.63-2.51-.99-3.82-1.08-1.31-.09-2.61,.1-3.92,.57-1.31,.47-2.55,1.25-3.73,2.33-1.15,1.05-2.02,2.21-2.6,3.47-.48,1.04-.76,2.11-.88,3.19h-7c-.12-.72-.32-1.44-.61-2.16-.53-1.3-1.32-2.52-2.37-3.67-1.04-1.14-2.18-2.02-3.42-2.65C17.15,.47,15.87,.11,14.57,.02c-1.31-.09-2.61,.1-3.92,.57-1.31,.47-2.55,1.25-3.73,2.33-1.15,1.05-2.02,2.21-2.6,3.47-.48,1.04-.76,2.11-.88,3.19H0v1.88H3.41c.08,.93,.29,1.85,.64,2.77,.5,1.31,1.27,2.53,2.31,3.67,1.05,1.15,2.21,2.03,3.48,2.65,1.27,.62,2.57,.97,3.9,1.05,1.33,.08,2.65-.12,3.96-.59,1.31-.47,2.54-1.24,3.69-2.29,1.18-1.08,2.06-2.25,2.65-3.51,.57-1.22,.86-2.47,.9-3.74h6.82c.08,.93,.29,1.85,.64,2.77,.5,1.31,1.27,2.53,2.31,3.67,1.05,1.15,2.21,2.03,3.48,2.65,1.27,.62,2.57,.97,3.9,1.05,1.33,.08,2.65-.12,3.96-.59,1.31-.47,2.54-1.24,3.69-2.29,1.18-1.08,2.06-2.25,2.65-3.51,.57-1.22,.86-2.47,.9-3.74h3.41v-1.88h-3.56Zm-31.81,1.4c-.08,.89-.33,1.75-.76,2.59-.43,.84-1.02,1.61-1.79,2.3-.79,.72-1.62,1.26-2.5,1.62-.88,.36-1.77,.54-2.66,.53-.9,0-1.76-.2-2.61-.57-.84-.38-1.6-.94-2.29-1.68-.68-.75-1.17-1.55-1.47-2.42-.29-.86-.41-1.74-.33-2.64,.07-.89,.33-1.76,.76-2.61,.44-.84,1.05-1.63,1.84-2.35,.76-.7,1.58-1.22,2.45-1.58,.87-.35,1.75-.53,2.64-.53,.89,0,1.76,.18,2.6,.54,.84,.36,1.61,.92,2.31,1.69,.7,.76,1.19,1.58,1.49,2.46,.29,.88,.4,1.76,.32,2.64Zm28.35,0c-.08,.89-.33,1.75-.76,2.59-.43,.84-1.02,1.61-1.79,2.3-.79,.72-1.62,1.26-2.5,1.62-.88,.36-1.77,.54-2.66,.53-.9,0-1.76-.2-2.61-.57-.84-.38-1.6-.94-2.29-1.68-.68-.75-1.17-1.55-1.47-2.42-.29-.86-.41-1.74-.33-2.64,.07-.89,.33-1.76,.76-2.61,.44-.84,1.05-1.63,1.84-2.35,.76-.7,1.58-1.22,2.45-1.58,.87-.35,1.75-.53,2.64-.53,.89,0,1.76,.18,2.6,.54,.84,.36,1.61,.92,2.31,1.69,.7,.76,1.19,1.58,1.49,2.46,.29,.88,.4,1.76,.32,2.64Z"/>
</svg>