<svg xmlns="http://www.w3.org/2000/svg" width="500.733" height="110.352" viewBox="0 0 500.733 110.352">
  <g id="orgreen" transform="translate(0 0)">
    <path id="Shape" d="M44.878-74.739a40.448,40.448,0,0,0-9.67,3.349c-10.547,5.258-16.962,15.21-15.773,24.5.532,4.413,2.316,9.076,4.35,11.36a4.67,4.67,0,0,1,.939,1.408c0,.595-4.475,5.1-7.542,7.574A80.569,80.569,0,0,1,1.753-16.716C.72-16.247,0-15.746,0-15.465c0,.939,1.377.5,5.758-1.878a107.462,107.462,0,0,0,18.558-12.3l2.441-2.128,2.066,1.909a27.064,27.064,0,0,0,22.909,6.6c12.049-2.1,22.189-10.015,24.192-18.871l.5-2.191L79.585-47.1c1.753-1.5,4.882-4.381,6.979-6.353C90.82-57.495,93.042-59,96.047-59.78c6.04-1.565,10.515.156,14.615,5.571,3.067,4.068,4.976,8.137,8.888,19,1.878,5.226,3.036,5.758,4.569,2.159,4.162-9.639,10.3-16.462,17.338-19.247a20.857,20.857,0,0,1,12.988-.689c2.347.72,2.378.751,1.846,2.316C154.539-45.54,155.509-37,158.2-33.835c2.754,3.255,8.825,3.411,15.836.407a22.343,22.343,0,0,1,2.5-.939,5.525,5.525,0,0,1,.282,2.441v2.41l-2.5,2.128c-11.892,10.109-23.6,24.1-28.354,33.893-2.128,4.413-2.942,7.48-2.942,11.2.031,10.86,6.134,17.682,15.8,17.713a16.3,16.3,0,0,0,11.83-4.976c3.63-3.443,6.259-7.761,8.293-13.551,1.94-5.414,2.253-8.262,3.818-32.8l.939-14.865,1.158-1.033a53.942,53.942,0,0,1,10.484-6.572,28.491,28.491,0,0,1,11.892-2.785c3.411-.156,4.256-.063,6.134.5a16.666,16.666,0,0,1,6.979,4.35,24.146,24.146,0,0,1,5.571,12.737c.438,3.818,1.5,5.477,3.536,5.477,1.189,0,1.6-.751,2.723-5.07,1.314-5.1,2.1-6.51,5.758-10.2,4.976-5.1,12.518-8.732,20.436-9.921a90.328,90.328,0,0,1,16.305-.313l2.566.219.188,1.158a29.884,29.884,0,0,0,2.879,8.137c2.41,4.006,7.323,7.448,12.831,8.919,8.2,2.191,21.093,2.535,30.639.814,5.665-1,12.831-3.411,15.93-5.32l.939-.595,2.191,1.1a18.757,18.757,0,0,0,4.694,1.533,65.33,65.33,0,0,0,15.241,0,51.353,51.353,0,0,0,18.9-8.074c1.878-1.252,5.164-3.474,7.323-4.945,2.159-1.44,5.2-3.286,6.729-4.1,3.474-1.784,8.293-3.443,10.171-3.474,3.787-.031,7.824,4.413,12.518,13.833,3.568,7.135,3.724,7.1,7.887-1.69,1.221-2.629,5.32-6.916,8.137-8.575a24.2,24.2,0,0,1,10.109-3.067c5.039-.313,7.761.751,14.24,5.571,9.2,6.822,12.581,8.356,19.654,9.044a57.291,57.291,0,0,0,18.9-2.066c1.565-.5,3.38-2.222,3.38-3.223,0-1.346-.72-1.408-4.788-.532-8.2,1.784-16.712,2.222-21,1.127-5.226-1.346-10.734-4.319-18.5-10.077-2.253-1.627-4.632-3.286-5.352-3.63a17.816,17.816,0,0,0-8.419-1.721,27.566,27.566,0,0,0-17.4,6.2l-2.066,1.659-1.283-1.972a18.753,18.753,0,0,0-6.948-6.228c-1.972-.939-2.159-.97-6.259-.939-3.975,0-4.381.063-6.885,1-1.471.563-5.32,2.441-8.606,4.162-20,10.547-27.384,13.614-34.206,14.3-3.849.407-7.73-.188-9.076-1.346a10.157,10.157,0,0,1,.97-2.222c3.036-6.1,3.63-11.517,1.659-15.4a13.6,13.6,0,0,0-5.758-5.32c-6.04-2.848-14.709,1.69-16.806,8.825a20.25,20.25,0,0,0,.031,8.669,17.5,17.5,0,0,0,6.228,8.951l1.252.97-1.252.532a72.1,72.1,0,0,1-11.736,2.817,93.4,93.4,0,0,1-11.266.688c-6.885.125-7.98.094-10.8-.5-6.009-1.221-10.578-4.319-12.894-8.669-1.033-1.909-2.034-5.07-1.753-5.508.063-.156.814-.25,1.659-.25,5.164,0,12.894-3.13,17.025-6.916,4.131-3.755,4.632-9.044,1.189-12.581-3.443-3.568-10.922-4.945-16.712-3.036-6.134,2.034-11.267,8.356-13.363,16.462l-.344,1.314-1.972-.469c-2.66-.626-13.676-.908-18.058-.438a31.542,31.542,0,0,0-11.892,3.349,60.438,60.438,0,0,0-12.644,8.293c-1.721,1.408-3.161,2.441-3.223,2.285s-.657-1.158-1.346-2.191a29.653,29.653,0,0,0-8.043-7.6c-4.319-2.566-10.14-4.068-14.021-3.63-4.475.5-11.673,3.63-18.9,8.262a41.379,41.379,0,0,1-3.6,2.159c-.063-.063-.219-1.846-.407-4.006-.407-4.538-.72-5.633-1.69-5.633-.782,0-2.316,1.565-3.443,3.474-1.064,1.846-3.849,3.693-7.229,4.788-4.82,1.565-6.071.782-6.009-3.818a35.893,35.893,0,0,1,.407-4.6c.626-3,.595-2.973,1.408-2.66a22.917,22.917,0,0,0,3.255.626c3.255.5,5.445-.063,6.916-1.721a7.21,7.21,0,0,0,1.127-8.481c-2.817-5.633-9.42-5.446-15.836.438l-2.066,1.909-2.159-.814c-7.511-2.723-15.491-2.785-22.032-.125a30.939,30.939,0,0,0-12.111,9.608l-1.408,1.94L120.9-49.452c-3.38-6.729-8.888-12.143-14.772-14.521-7.511-3.036-13.833-.876-22.752,7.793-1.94,1.846-4.319,4.35-5.32,5.539a16.348,16.348,0,0,1-2,2.191,4.7,4.7,0,0,1-.689-1.5c-1.878-5.258-7.855-10.578-15.429-13.739a11.065,11.065,0,0,0-5.946-1.189c-2.942,0-3.286.063-5.32,1.064-3.223,1.565-6.729,5.289-10.422,11.016-1.627,2.472-4.194,6.478-5.758,8.888-3.161,4.913-3,4.851-4.381,1.44-.595-1.5-.689-2.347-.72-6.134,0-4.131.063-4.507.908-6.572a29.874,29.874,0,0,1,6.854-9.733,24.018,24.018,0,0,1,12.205-6.6c3.787-.782,10.328-.063,13.395,1.5,2.191,1.1,3.317.469,1.784-1a23.54,23.54,0,0,0-6.979-3.223A37.02,37.02,0,0,0,44.878-74.739ZM301.41-61c1.283,1.283,1.221,2.754-.188,5.6a14.614,14.614,0,0,1-11.329,8.106,13.067,13.067,0,0,1-3.036-.031l-.814-.188,1.127-2.253c3.1-6.165,7.1-10.609,10.547-11.7C299.72-62.1,300.408-62,301.41-61ZM173.786-58.434c1.471,1.6.908,3.317-1.471,4.381-2.253,1.033-3.881.782-5.978-.908l-.876-.689.908-.97c1.909-2,4.288-3.192,5.758-2.879A4.208,4.208,0,0,1,173.786-58.434Zm-112.352.751c4.037,1.846,5.289,2.848,6.478,5.258a14.546,14.546,0,0,1-.063,12.831c-2.378,4.444-9.2,8.763-15.648,9.921a17.111,17.111,0,0,1-5.1,0c-6.259-.657-10.609-2.378-13.9-5.508L31.171-37.09l2.159-2.629C41.936-50.234,49.6-57.526,53.516-59,55.362-59.686,57.9-59.279,61.434-57.683Zm284.135,4.632a7.3,7.3,0,0,1,2.973,6.1,18.058,18.058,0,0,1-3,6.916l-.563.751-1.221-.751C338.9-43,337.4-46.76,339.5-50.86c1-2,2.472-3.224,3.849-3.224A4.862,4.862,0,0,1,345.568-53.051ZM176.414-16.623a148.642,148.642,0,0,1-1.5,19.5c-2.253,16.18-5.79,22.6-12.831,23.1-2.942.188-5.133-.5-6.823-2.191-7.01-7.1-2.879-20.123,12.018-37.962,2.879-3.474,8.825-9.858,9.17-9.858C176.54-24.04,176.508-20.691,176.414-16.623Z" transform="translate(0 74.93)"/>
  </g>
</svg>
