<svg xmlns="http://www.w3.org/2000/svg" width="500.733" height="85.313" viewBox="0 0 500.733 85.313">
  <g id="g3264" transform="translate(-4.373 -4.13)">
    <path id="path3139" d="M58.558,30.219,76.014,68.324,93.842,30.219h3.691l22.991,83.1H100.114L90.771,78.727,76.014,111.384l-14.871-32.3-9.35,34.233H32l22.87-83.1Z" transform="translate(-27.627 -26.09)"/>
    <path id="path3159" d="M268.737,97.308c12.538,0,22.5-10.524,22.5-23.587S281.275,50,268.982,50C256.809,50,246.6,60.65,246.6,73.354c0,13.3,9.839,23.953,22.132,23.953m-.124-65.7c23.732,0,42.787,18.632,42.787,42.111,0,23.221-19.055,41.975-42.418,41.975-23.232.122-42.539-18.754-42.539-41.378a42.315,42.315,0,0,1,42.17-42.708" transform="translate(-120.974 -26.743)"/>
    <path id="path3161" d="M468.137,52.823c-8.729-2.544-13.52-3.511-18.073-3.511-3.932,0-6.39,1.934-6.39,5.084,0,2.659,1.475,4.355,5.652,6.411.982.482,3.071,1.571,6.4,3.389,9.953,5.2,10.808,5.807,14.13,8.226a22.618,22.618,0,0,1,9.1,18.15c0,14.765-12.173,25.29-29.139,25.29a97.127,97.127,0,0,1-16.6-2.052,98.649,98.649,0,0,1-11.8-3.633l4.673-18.632c5.042,1.815,6.889,2.415,9.836,3.263a57.058,57.058,0,0,0,14.633,2.544c4.177,0,7.131-2.785,7.131-6.9,0-3.751-.983-4.481-12.049-10.169-10.2-5.2-12.179-6.292-15.739-9.318a20.2,20.2,0,0,1-7.255-16.091c0-14.158,11.314-23.957,27.788-23.957a66.17,66.17,0,0,1,14.633,1.933c2.823.726,4.67,1.214,9.836,2.663Z" transform="translate(-214.338 -26.42)"/>
    <path id="path3163" d="M624.341,54.978c-1.23-.851-2.213-1.333-2.829-1.7a30.619,30.619,0,0,0-13.521-3.388c-11.931,0-21.64,10.649-21.64,23.955,0,13.19,9.836,23.473,22.622,23.473,5.776,0,10.208-1.574,17.091-6.169l2.954,19.966c-1.358.6-2.34,1.085-2.954,1.326a48.289,48.289,0,0,1-17.214,3.269c-23.853,0-42.666-18.633-42.666-42.228,0-23.833,18.938-42.1,43.648-42.1a44.983,44.983,0,0,1,8.119.726,55.562,55.562,0,0,1,10.574,3.144l-4.184,19.725Z" transform="translate(-283.81 -26.636)"/>
    <path id="path3165" d="M754.035,97.308c12.538,0,22.5-10.524,22.5-23.587S766.573,50,754.282,50C742.1,50,731.9,60.65,731.9,73.354c0,13.3,9.836,23.953,22.133,23.953m-.124-65.7c23.728,0,42.783,18.632,42.783,42.111,0,23.221-19.055,41.975-42.411,41.975-23.242.122-42.545-18.754-42.545-41.378A42.318,42.318,0,0,1,753.91,31.61" transform="translate(-355.152 -26.743)"/>
    <path id="path3167" d="M948.266,34.859V52.638H934.615V115.5H915.07V52.638H898.962l2.83-17.779Z" transform="translate(-443.16 -28.27)"/>
  </g>
</svg>
